<?xml version="1.0" encoding="UTF-8"?>
<!DOCTYPE svg PUBLIC "-//W3C//DTD SVG 1.1//EN" "http://www.w3.org/Graphics/SVG/1.1/DTD/svg11.dtd">
<svg version="1.1" xmlns="http://www.w3.org/2000/svg" xmlns:xlink="http://www.w3.org/1999/xlink" x="0" y="0" width="250.537" height="193.879" viewBox="0, 0, 250.537, 193.879">
  <g id="Layer_1" transform="translate(-285.178, -159.428)">
    <path d="M301.926,161.234 L316.965,161.234 L316.965,205.521 Q316.965,216.02 320.432,220.683 Q323.898,225.346 331.613,225.346 Q338.986,225.346 342.282,220.902 Q345.578,216.459 345.578,206.596 L345.578,161.234 L358.664,161.234 L358.664,205.619 Q358.664,215.629 356.76,220.878 Q354.855,226.127 349.826,229.984 Q342.941,235.307 331.32,235.307 Q318.869,235.307 311.301,229.643 Q306.076,225.736 304.001,220.39 Q301.926,215.043 301.926,205.473 z" fill="#000000"/>
    <path d="M376.145,233.5 L376.145,161.234 L391.184,161.234 L391.184,233.5 z" fill="#000000"/>
    <path d="M405.246,232.865 L405.246,220.463 Q416.916,225.346 425.217,225.346 Q431.027,225.346 434.372,222.758 Q437.717,220.17 437.717,215.727 Q437.717,212.211 435.617,209.794 Q433.518,207.377 427.658,204.057 L422.824,201.371 Q413.107,195.902 409.104,190.897 Q405.1,185.893 405.1,179.203 Q405.1,170.268 411.667,164.848 Q418.234,159.428 429.025,159.428 Q437.668,159.428 448.508,161.918 L448.508,173.49 Q437.424,169.34 430.979,169.34 Q425.998,169.34 422.995,171.562 Q419.992,173.783 419.992,177.396 Q419.992,180.375 422.092,182.621 Q424.191,184.867 430.002,188.139 L435.178,191.02 Q445.627,196.879 449.582,201.811 Q453.537,206.742 453.537,213.822 Q453.537,223.881 446.066,229.594 Q438.596,235.307 425.461,235.307 Q416.77,235.307 405.246,232.865 z" fill="#000000"/>
    <path d="M484.348,233.5 L484.348,171.146 L458.469,171.146 L458.469,161.234 L525.314,161.234 L525.314,171.146 L499.436,171.146 L499.436,233.5 z" fill="#000000"/>
    <path d="M285.178,351.5 L285.178,340.074 L285.959,339 Q291.77,331.236 297.873,325.914 L303.781,320.689 Q318.381,307.799 318.381,298.082 Q318.381,286.754 305.49,286.754 Q297.531,286.754 287.033,292.125 L287.033,281.529 Q298.068,277.428 308.371,277.428 Q319.895,277.428 326.828,282.872 Q333.762,288.316 333.762,297.447 Q333.762,303.746 330.393,308.922 Q327.023,314.098 318.527,320.934 L313.645,324.84 Q303.439,333.043 301.535,340.074 L333.469,340.074 L333.469,351.5 z" fill="#000000"/>
    <path d="M376.633,353.307 Q364.328,353.307 356.638,342.76 Q348.947,332.213 348.947,315.367 Q348.947,298.326 356.662,287.877 Q364.377,277.428 376.975,277.428 Q389.475,277.428 397.214,287.853 Q404.953,298.277 404.953,315.172 Q404.953,332.506 397.214,342.906 Q389.475,353.307 376.633,353.307 z M376.779,344.273 Q389.621,344.273 389.621,315.367 Q389.621,286.461 376.975,286.461 Q364.328,286.461 364.328,315.318 Q364.328,344.273 376.779,344.273 z" fill="#000000"/>
    <path d="M423.996,351.5 L423.996,343.053 L438.449,343.053 L438.449,289.732 L423.996,293.346 L423.996,284.654 L452.951,277.428 L452.951,343.053 L467.404,343.053 L467.404,351.5 z" fill="#000000"/>
    <path d="M495.969,313.17 Q502.756,304.967 513.352,304.967 Q523.02,304.967 529.367,311.339 Q535.715,317.711 535.715,327.428 Q535.715,338.805 528.391,346.056 Q521.066,353.307 509.543,353.307 Q496.066,353.307 488.498,343.712 Q480.93,334.117 480.93,317.027 Q480.93,298.229 489.548,287.804 Q498.166,277.379 513.742,277.379 Q521.066,277.379 531.906,280.016 L531.906,290.562 Q522.043,286.412 514.23,286.412 Q505.539,286.412 500.754,293.443 Q495.969,300.475 495.969,313.17 z M521.262,329.82 Q521.262,322.447 518.015,318.15 Q514.768,313.854 509.201,313.854 Q503.879,313.854 500.241,317.76 Q496.604,321.666 496.604,327.428 Q496.604,334.996 500.168,339.635 Q503.732,344.273 509.494,344.273 Q514.865,344.273 518.063,340.343 Q521.262,336.412 521.262,329.82 z" fill="#000000"/>
  </g>
</svg>
