<?xml version="1.0" encoding="UTF-8"?>
<!DOCTYPE svg PUBLIC "-//W3C//DTD SVG 1.1//EN" "http://www.w3.org/Graphics/SVG/1.1/DTD/svg11.dtd">
<svg version="1.1" xmlns="http://www.w3.org/2000/svg" xmlns:xlink="http://www.w3.org/1999/xlink" x="0" y="0" width="64.172" height="105.958" viewBox="0, 0, 64.172, 105.958">
  <g id="Layer_1" transform="translate(-495.816, -6215.249)">
    <path d="M536.324,6244.101 C536.324,6244.101 536.576,6243.34 537.083,6243.172 C537.083,6243.172 536.072,6241.91 538.851,6239.129 C538.851,6239.129 539.946,6237.444 540.114,6236.183 C540.284,6234.918 540.957,6233.151 541.041,6232.31 C541.125,6231.465 540.788,6230.203 541.799,6227.084 C542.809,6223.969 543.736,6222.958 543.736,6221.444 C543.736,6219.926 543.819,6218.831 545.422,6218.073 C547.021,6217.315 548.704,6216.474 548.872,6216.222 C549.04,6215.967 550.388,6215.463 550.894,6215.377 C551.4,6215.293 552.999,6214.958 552.579,6215.883 L550.558,6216.558 C550.558,6216.558 553.505,6218.073 553.253,6218.917 C553.253,6218.917 552.579,6219.252 552.159,6218.917 C552.159,6218.917 552.411,6219.84 551.991,6219.926 L550.136,6219.672 C550.136,6219.672 549.294,6219.422 548.788,6219.756 C548.284,6220.094 547.947,6220.178 547.275,6220.262 C547.275,6220.262 546.347,6219.84 546.347,6221.444 C546.347,6223.043 546.263,6230.622 545.422,6232.56 C545.422,6232.56 544.663,6234.583 544.578,6235.676 C544.494,6236.772 542.64,6242.75 542.136,6243.847 C542.136,6243.847 541.209,6246.205 542.64,6247.637 C544.072,6249.069 545.338,6251.678 545.758,6254.206 C546.178,6256.731 545.59,6260.187 545.422,6261.872 C545.252,6263.556 544.324,6264.903 544.832,6265.578 C545.338,6266.25 545.422,6265.913 546.095,6266.081 C546.769,6266.25 551.148,6266.502 556.2,6271.642 L556.032,6272.651 L558.56,6274.167 C558.56,6274.167 559.15,6274.252 558.98,6275.685 C558.812,6277.116 558.98,6277.621 558.98,6277.621 C558.98,6277.621 560.327,6278.715 559.906,6279.053 C559.906,6279.053 558.476,6279.474 558.644,6280.231 L558.812,6280.989 L557.38,6282.336 C557.38,6282.336 556.368,6283.854 555.779,6283.603 C555.191,6283.349 555.275,6283.349 555.023,6283.685 C554.769,6284.022 554.685,6284.106 554.431,6284.022 L554.179,6283.938 C554.179,6283.938 553.673,6284.106 553.421,6284.36 C553.169,6284.612 553.169,6283.854 552.579,6284.528 C551.99,6285.2 551.906,6285.706 551.316,6285.2 C550.728,6284.696 551.064,6284.022 550.728,6284.696 C550.388,6285.371 551.148,6285.539 550.388,6285.371 C549.63,6285.2 549.126,6284.864 548.788,6285.2 C548.452,6285.539 548.2,6285.622 547.695,6285.539 C547.189,6285.455 547.105,6285.875 546.683,6285.706 C546.263,6285.539 546.095,6284.782 544.663,6285.455 C543.231,6286.127 543.988,6285.959 543.398,6285.539 C542.809,6285.116 542.724,6285.032 542.387,6285.287 C542.053,6285.539 541.547,6285.622 541.125,6285.371 C540.704,6285.116 541.379,6284.948 540.704,6285.116 C540.031,6285.287 539.524,6284.948 539.524,6284.948 L538.178,6286.211 C538.178,6286.211 538.767,6290.086 538.683,6293.035 C538.683,6293.035 539.019,6294.969 538.429,6297.499 C538.429,6297.499 538.178,6299.94 539.272,6301.287 C540.368,6302.635 540.535,6306.931 540.957,6309.29 C541.379,6311.649 541.041,6312.069 541.547,6313.5 C542.053,6314.933 542.724,6315.187 542.472,6316.619 C542.22,6318.049 542.472,6320.575 541.209,6320.996 C541.209,6320.996 540.452,6320.575 539.609,6320.996 C539.609,6320.996 534.724,6321.838 535.144,6320.155 C535.144,6320.155 535.482,6319.313 536.744,6318.724 C536.744,6318.724 538.513,6318.049 538.429,6317.206 C538.345,6316.364 538.597,6315.522 538.01,6314.765 C537.418,6314.006 532.534,6307.437 532.786,6301.54 C532.786,6301.54 532.534,6295.562 532.028,6294.297 C532.028,6294.297 530.344,6295.981 529.924,6297.246 C529.924,6297.246 525.52,6304.621 525.713,6305.584 C525.797,6306.004 524.869,6307.688 524.533,6309.374 C524.195,6311.058 522.176,6315.354 519.394,6317.795 L518.299,6319.229 C518.299,6319.229 516.194,6320.746 516.11,6318.133 C516.11,6318.133 516.699,6315.103 517.541,6314.09 C517.541,6314.09 518.72,6311.901 517.541,6310.89 C517.541,6310.89 515.605,6308.532 518.636,6308.11 C518.636,6308.11 521.67,6309.542 521.332,6303.729 C521.332,6303.729 520.322,6296.403 524.7,6292.698 C524.7,6292.698 527.986,6291.012 528.997,6283.517 L528.239,6280.989 C528.239,6280.989 527.396,6280.737 527.06,6280.821 C526.724,6280.905 525.965,6280.821 525.797,6280.401 C525.629,6279.979 525.291,6279.56 524.786,6279.56 C524.28,6279.56 523.774,6279.644 523.437,6279.222 C523.101,6278.799 523.015,6278.127 522.258,6278.127 C521.501,6278.127 520.912,6278.127 520.744,6277.706 C520.574,6277.287 520.153,6277.032 519.564,6276.948 C518.972,6276.864 518.553,6276.948 518.299,6276.442 C518.047,6275.938 517.88,6275.769 517.627,6275.853 C517.373,6275.938 517.121,6276.022 516.952,6275.431 C516.783,6274.84 516.699,6274.588 516.447,6274.418 C516.194,6274.252 515.521,6273.915 515.773,6273.496 C516.027,6273.073 516.279,6272.989 515.689,6272.989 C515.099,6272.989 514.845,6272.819 514.845,6272.483 C514.845,6272.147 514.343,6271.81 514.343,6271.81 L513.669,6270.797 L513.416,6269.958 C513.416,6269.958 512.994,6268.862 513.078,6268.526 C513.162,6268.188 513.584,6267.431 513.669,6267.178 C513.753,6266.924 513.416,6265.83 513.753,6265.491 C514.09,6265.155 514.762,6264.987 515.267,6264.819 C515.773,6264.649 517.121,6263.808 517.711,6263.556 C518.299,6263.301 523.015,6262.965 524.111,6262.545 C525.207,6262.124 527.48,6262.038 529.67,6262.375 C531.86,6262.711 532.871,6263.051 532.871,6263.051 C532.871,6263.051 529.924,6259.176 529.25,6257.575 C529.25,6257.575 528.071,6254.879 525.881,6255.133 C525.881,6255.133 521.67,6256.901 519.226,6256.481 C519.226,6256.481 515.941,6256.733 514.595,6257.155 C513.246,6257.575 508.614,6258.418 507.18,6258.418 C505.75,6258.418 502.886,6258.249 502.803,6258.584 C502.803,6258.584 502.297,6260.356 500.949,6261.198 L499.855,6263.219 C499.855,6263.219 498.76,6263.808 498.676,6262.713 C498.676,6262.713 498.508,6264.146 497.833,6263.724 C497.833,6263.724 496.654,6265.831 496.401,6264.735 C496.401,6264.735 495.726,6264.483 496.064,6264.06 C496.064,6264.06 495.644,6263.556 495.896,6262.629 C495.896,6262.629 496.148,6261.282 496.738,6260.524 C497.328,6259.765 498.002,6259.26 498.508,6258.838 C499.013,6258.418 501.707,6256.481 502.972,6255.976 C504.234,6255.472 506.678,6255.133 508.108,6254.459 C509.541,6253.787 512.235,6252.86 514.174,6252.86 C516.11,6252.86 517.289,6252.269 518.047,6252.101 C518.806,6251.933 520.153,6251.933 521.417,6251.342 C522.679,6250.752 524.616,6249.237 527.314,6249.405 C527.314,6249.405 530.092,6247.637 530.681,6246.542 C530.681,6246.542 530.933,6245.785 530.176,6245.194 C530.176,6245.194 528.239,6242.918 527.818,6243.256 C527.818,6243.256 525.291,6242.667 526.133,6241.489 C526.133,6241.489 522.511,6236.856 525.543,6234.413 C525.543,6234.413 527.986,6231.803 530.933,6233.739 C530.933,6233.739 533.545,6236.604 533.462,6237.194 C533.462,6237.194 535.144,6238.039 534.387,6239.467 C534.387,6239.467 536.072,6243.256 536.324,6244.101" fill="#591B00"/>
  </g>
</svg>
