<?xml version="1.0" encoding="UTF-8"?>
<!DOCTYPE svg PUBLIC "-//W3C//DTD SVG 1.1//EN" "http://www.w3.org/Graphics/SVG/1.1/DTD/svg11.dtd">
<svg version="1.1" xmlns="http://www.w3.org/2000/svg" xmlns:xlink="http://www.w3.org/1999/xlink" x="0" y="0" width="132" height="159" viewBox="0, 0, 132, 159">
  <g id="Layer_1" transform="translate(-242, -205)">
    <g>
      <path d="M328,300.5 C302.871,300.5 282.5,279.457 282.5,253.5 C282.5,227.543 302.871,206.5 328,206.5 C353.129,206.5 373.5,227.543 373.5,253.5 C373.5,279.457 353.129,300.5 328,300.5 z" fill="#000000"/>
      <path d="M328,300.5 C302.871,300.5 282.5,279.457 282.5,253.5 C282.5,227.543 302.871,206.5 328,206.5 C353.129,206.5 373.5,227.543 373.5,253.5 C373.5,279.457 353.129,300.5 328,300.5 z" fill-opacity="0" stroke="#000000" stroke-width="1"/>
    </g>
    <g>
      <path d="M300.5,363.5 C269.02,363.5 243.5,337.98 243.5,306.5 C243.5,275.02 269.02,249.5 300.5,249.5 C331.98,249.5 357.5,275.02 357.5,306.5 C357.5,337.98 331.98,363.5 300.5,363.5 z" fill="#000000"/>
      <path d="M300.5,363.5 C269.02,363.5 243.5,337.98 243.5,306.5 C243.5,275.02 269.02,249.5 300.5,249.5 C331.98,249.5 357.5,275.02 357.5,306.5 C357.5,337.98 331.98,363.5 300.5,363.5 z" fill-opacity="0" stroke="#000000" stroke-width="1"/>
    </g>
  </g>
</svg>
