####
#
# OBJ File Generated by Meshlab
#
####
# Object AR15_Grip-simple.obj
#
# Vertices: 185
# Faces: 366
#
####
vn -0.549985 -0.567924 -1.931298
v 29.682667 57.249237 4.411427
vn 0.083170 0.084329 -0.217477
v 54.948635 76.746529 7.828399
vn -0.119053 0.080463 -1.463278
v 62.808060 25.652428 3.037870
vn -0.147185 0.040661 -1.556003
v 61.449211 18.809866 2.860000
vn -0.137363 0.072306 -1.521350
v 68.123917 20.266340 2.337063
vn -0.027448 0.029094 -0.405207
v 69.042114 26.571365 2.753579
vn 0.358429 0.398844 -1.164817
v 74.004623 40.082054 4.220651
vn -0.028893 0.206374 -1.503716
v 61.699024 37.286049 3.933077
vn -0.040995 0.023241 -0.354770
v 79.005234 21.227142 1.697958
vn -0.067321 0.102542 -0.720918
v 39.274147 78.814751 5.416438
vn 0.155403 0.072837 -0.794205
v 59.365631 64.299957 4.307987
vn -0.011612 0.062972 -0.542040
v 68.298828 33.071449 3.401145
vn 0.199125 0.002762 -1.483687
v 64.583351 49.944794 4.139504
vn 0.224978 -0.018475 -1.196068
v 58.203407 48.544464 3.110338
vn 0.149802 0.096669 -0.538053
v 76.627464 48.986092 7.563884
vn 0.423234 0.230307 -1.358394
v 74.401695 56.518402 10.482291
vn 0.106006 0.061513 -0.253132
v 65.083458 61.835991 6.114757
vn 0.277331 0.300980 -0.947525
v 80.773285 28.390566 2.199393
vn 0.157632 0.126941 -0.381094
v 92.188995 23.626923 5.052122
vn -0.016482 0.264919 -1.291797
v 45.251183 62.214001 1.875255
vn -0.005984 0.052504 -0.217160
v 48.040924 73.690880 4.392524
vn -0.172776 0.376133 -1.759731
v 37.022907 68.764572 3.863887
vn -0.236608 -0.305427 -1.036822
v 36.967972 45.931087 4.509140
vn -0.089197 -0.114330 -0.723559
v 51.152786 34.012245 4.179273
vn -0.054684 -0.430830 -2.251225
v 42.045799 48.477875 2.634012
vn -0.122445 0.146202 -0.876573
v 29.197796 70.750717 5.174319
vn -0.289847 -0.266901 -1.564047
v 34.706242 53.177151 2.900073
vn -0.325174 0.092844 -1.239138
v 36.572433 60.508308 2.437644
vn 0.069762 -0.103526 -1.007701
v 51.538761 58.272846 1.695082
vn 0.091809 -0.136242 -1.326153
v 53.704865 52.572506 2.132247
vn 0.108171 -0.180037 -1.328968
v 44.278618 53.861763 1.533126
vn 0.099862 -0.168656 -1.244299
v 50.098499 45.304787 2.863309
vn -0.061833 0.122819 -1.449926
v 56.719917 26.978485 3.538721
vn 0.000000 0.000000 -1.257744
v 19.939857 73.584007 6.053564
vn -0.215928 0.040344 2.280768
v 71.391159 9.362649 32.979599
vn -0.103436 -0.132601 0.372084
v 37.304924 50.386024 32.777355
vn -0.506877 -0.694745 2.004459
v 31.146847 56.301414 31.753498
vn -0.053710 0.033617 0.941424
v 31.276327 80.793930 29.703041
vn -0.122217 0.089406 1.791788
v 59.348129 22.946804 32.559189
vn -0.087036 0.041784 0.987067
v 65.884285 21.536079 33.139771
vn 0.032444 0.065633 0.260703
v 77.090240 36.367302 32.041397
vn 0.611756 0.567309 1.408275
v 79.459877 49.470234 25.500427
vn -0.077763 0.113888 1.403039
v 74.854370 21.817123 33.679993
vn 0.133030 0.131711 0.446027
v 73.105011 30.704777 32.829613
vn -0.069974 0.114882 1.454732
v 87.335297 22.112305 33.606060
vn -0.061391 0.308891 1.525406
v 45.756222 72.625160 31.691544
vn 0.062871 0.075012 0.661835
v 51.020973 60.154644 33.840950
vn 0.181090 -0.176591 1.694017
v 62.842773 43.979939 31.733114
vn 0.409491 0.063372 1.858404
v 56.662369 53.567162 33.194611
vn 0.040798 0.035186 1.455498
v 61.730949 37.226364 31.799078
vn 0.123537 -0.022151 0.842686
v 61.161507 49.691872 32.209541
vn 0.230261 0.243018 0.880332
v 52.757675 69.530632 31.802505
vn 0.309295 0.116399 1.185657
v 64.704102 56.575333 31.298388
vn 0.346323 0.181313 1.671350
v 71.445602 48.003410 30.335850
vn 0.366233 0.223799 0.883796
v 62.578629 63.618462 30.054966
vn -0.012847 0.122460 1.019863
v 71.742836 41.798279 31.247869
vn -0.182264 0.224061 1.265378
v 31.300577 65.142303 31.636078
vn -0.029564 -0.160462 0.848972
v 42.785397 45.759521 32.511482
vn -0.016846 -0.005295 1.719000
v 61.481651 30.250502 32.288696
vn -0.088745 -0.299112 1.751482
v 50.165451 45.194546 32.845116
vn -0.099124 0.019654 1.172731
v 52.398140 23.948099 31.780731
vn -0.375521 -0.146716 1.688486
v 37.340836 59.317329 33.500385
vn -0.003711 0.003818 0.085053
v 29.897844 73.821320 30.192770
vn -0.121155 0.263173 1.287386
v 38.316444 69.289902 31.880245
vn -0.035868 0.070370 0.896228
v 67.214157 32.649120 32.328686
vn 0.024822 -0.041128 0.568117
v 53.506504 37.701870 31.784672
vn 0.049694 -0.076088 0.725561
v 45.410088 54.649799 34.263500
vn -0.028809 0.094613 0.644680
v 42.285980 63.946842 33.393730
vn 0.000000 0.000000 1.370480
v 25.103455 89.961906 29.675566
vn 0.121020 0.003024 -1.537710
v 38.878399 103.810005 6.053564
vn 0.745763 0.190467 -1.247214
v 48.374310 89.964600 10.548589
vn 1.496629 0.367431 -0.626133
v 49.016521 93.424904 18.533237
vn 0.000000 0.000000 -0.278300
v 38.878399 97.459999 6.053564
vn 0.000000 0.000000 -0.167401
v 10.303400 72.827888 6.168715
vn 0.000000 0.000000 -0.157079
v 16.653400 97.459999 6.053564
vn -0.928119 -1.418891 -0.266838
v 47.240429 17.918346 11.777790
vn -0.003295 0.003458 -0.057456
v 85.357658 18.478577 1.229974
vn -0.089073 -0.088670 -0.343664
v 41.983849 31.913828 5.949695
vn -0.200859 -0.021795 -0.006056
v 23.217100 52.541492 19.185755
vn -0.229142 0.046939 -2.787246
v 69.885483 8.647564 3.439149
vn -0.100924 0.073206 -1.458298
v 71.890213 15.183718 1.823191
vn 0.850796 0.783073 -1.565614
v 56.918678 70.670578 5.752769
vn 0.544725 0.436481 -0.818244
v 85.892181 36.288376 7.135667
vn -0.244490 -1.233476 -0.234522
v 35.449135 25.808475 16.379704
vn -0.651244 0.329180 -0.069201
v 47.019081 6.750389 12.020769
vn -1.175429 -0.376421 -0.953589
v 53.998508 18.537109 3.992271
vn -0.473763 -0.051690 -0.556663
v 57.603683 12.084688 3.216227
vn -0.422690 -0.531795 -0.731464
v 48.221809 27.831974 4.317608
vn -0.677481 0.068274 -0.438260
v 49.954712 10.617031 8.080317
vn -0.157006 -0.031676 -1.428533
v 63.697113 12.037886 2.547669
vn 0.932166 0.527414 -0.250793
v 95.241913 30.183254 17.526928
vn 0.926479 0.675210 -0.037113
v 52.481918 86.645622 18.543818
vn 0.370143 0.295967 -0.046822
v 56.725174 80.508270 20.536272
vn 0.241943 0.166605 -0.251949
v 87.154625 30.492033 4.982855
vn 0.146981 0.112051 -0.185967
v 86.114822 41.385986 11.274447
vn 0.835827 0.690754 -0.119397
v 60.846596 72.829361 10.600101
vn 0.364697 0.275181 -0.041841
v 56.613701 79.959404 13.327338
vn 1.202741 1.001938 -0.391184
v 67.003502 67.276031 13.153737
vn 1.268906 0.892088 -0.803594
v 91.372444 33.043488 10.519129
vn 1.115623 0.606786 -0.632273
v 96.883957 24.264116 11.137526
vn -0.166956 -0.558126 0.024209
v 11.579314 70.666336 17.864565
vn -0.951664 -0.479703 -0.093592
v 19.450539 65.419022 16.361591
vn -0.789311 -1.231905 -0.152573
v 30.324100 44.532425 21.672916
vn -0.624799 -1.168399 -0.271334
v 25.850723 47.382336 12.795349
vn -1.294854 -0.740052 -0.790622
v 36.268536 40.700562 8.467792
vn -1.482653 -0.464578 -0.209775
v 35.352795 37.031353 17.864565
vn -1.109880 -0.763035 -0.502457
v 32.576099 42.161369 15.230784
vn -0.527265 0.073650 -0.526456
v 37.370514 30.456608 11.758335
vn -0.868661 -1.085596 -1.482925
v 45.264339 23.478096 7.680110
vn -0.075504 -0.031744 -0.118700
v 23.525379 59.259987 10.548580
vn -0.760113 -0.517517 -1.365148
v 29.427670 49.677162 5.875830
vn -0.595318 -0.411897 -0.985039
v 41.751835 41.338467 4.562007
vn -0.000003 -0.000661 0.002936
v 10.303400 73.392799 29.661089
vn 1.193127 1.003816 0.045643
v 61.839748 74.168869 20.065472
vn 0.085751 0.045574 0.033776
v 96.580704 24.237514 25.294628
vn -0.101006 -0.040624 0.974971
v 56.284744 14.847447 32.292656
vn -0.903331 -1.014881 1.818783
v 19.594233 72.735672 29.606274
vn -0.755314 -1.478611 0.149105
v 41.666111 22.707647 17.864563
vn -0.277108 -0.386288 0.341351
v 45.655872 32.282242 31.018154
vn -0.577954 0.188287 0.107820
v 47.491829 13.233489 16.305460
vn -0.559410 0.088581 0.174236
v 49.208504 10.786093 26.361040
vn -0.288650 -0.455369 0.291305
v 49.537689 17.356743 27.374344
vn -0.551573 0.078374 0.533494
v 52.810894 8.133947 30.883705
vn 0.121932 0.087559 0.053447
v 87.184776 41.616863 22.221449
vn 1.138444 0.836936 0.141732
v 83.635956 47.513611 18.140419
vn 0.222305 0.160231 0.236248
v 86.068695 36.809319 27.784164
vn 0.329206 0.197521 0.164802
v 93.023491 30.082323 25.500813
vn 0.155667 0.097188 0.135950
v 95.738846 19.102913 29.539976
vn 0.970470 0.623852 1.005318
v 85.768799 31.292645 31.244715
vn 0.562076 0.435677 1.183442
v 46.106030 86.336571 28.597469
vn 0.599305 0.464534 1.261825
v 46.571327 80.274918 29.797260
vn 1.415837 0.822585 1.005265
v 45.155632 92.994675 27.280102
vn 0.402094 0.303244 0.186616
v 51.790283 83.760223 25.664875
vn 1.193099 1.004613 0.605867
v 58.622379 70.873009 28.917637
vn 1.001121 0.844120 0.512446
v 66.674850 67.105240 23.498783
vn 0.124495 0.097443 0.119154
v 73.483429 56.108402 26.571518
vn 1.193256 0.918477 1.051698
v 53.290173 76.206055 28.777058
vn 0.187413 0.141579 0.076262
v 78.771126 53.963005 17.864563
vn 0.133487 0.106799 0.008094
v 72.612671 60.556778 22.622662
vn 1.291200 0.703252 0.303102
v 98.535400 24.387951 16.819490
vn 0.163321 0.113741 0.042404
v 91.524948 36.724648 17.414795
vn -0.078725 -0.042636 0.128514
v 22.994717 67.873482 29.433798
vn -1.373580 0.154935 0.976950
v 29.460983 48.288383 28.633820
vn -0.806079 -0.366222 0.150673
v 18.751238 66.274803 22.828989
vn -1.199317 -0.668866 0.532194
v 35.257233 42.030792 27.267660
vn -0.085464 -0.016749 0.108913
v 40.696648 23.987713 23.733950
vn -0.488876 -0.196247 0.836072
v 42.889877 37.884125 30.833458
vn -0.272785 -0.057722 0.730868
v 37.253445 31.426710 23.712215
vn -0.685602 -0.196012 1.206740
v 24.798775 56.468864 26.250084
vn 0.000000 0.000000 1.492257
v 15.442126 103.559280 29.675566
vn 0.000000 0.000000 0.157080
v 16.653400 97.459999 29.675566
vn 0.000000 0.000000 1.492257
v 10.799158 99.362160 29.675566
vn 0.000000 0.266799 0.000000
v 42.053402 103.810005 13.229065
vn -1.802641 0.000000 0.000000
v 10.303400 78.410004 13.229065
vn -0.068748 0.000000 0.000000
v 10.303400 78.410004 22.500065
vn 0.037481 0.000000 0.000000
v 48.374084 103.810005 17.492054
vn 0.321809 -1.201004 -0.000000
v 63.707321 12.277411 33.191303
vn 0.418053 -1.560195 0.000000
v 84.773537 12.486662 32.889572
vn 0.000000 0.000000 -1.009034
v 28.997969 91.858978 6.053564
vn 0.000000 0.000000 -2.798522
v 22.830429 88.192902 6.053564
vn -0.329607 -0.873958 -0.069271
v 19.660999 67.523636 7.506926
vn -0.003536 0.004316 -1.636389
v 33.511532 85.150345 6.053564
vn 0.588738 0.069371 -1.882840
v 40.280949 88.990067 6.156902
vn -0.123243 1.565954 0.000000
v 14.771605 103.281021 6.053564
vn -1.339324 0.820739 0.000000
v 10.400642 98.198906 6.053564
vn 0.000000 0.000000 0.628318
v 16.156723 103.770920 13.229065
vn 0.000000 0.000000 0.078539
v 10.303400 97.459999 13.229065
vn 0.009255 -0.078990 -0.103862
v 59.747765 5.503714 5.970277
vn 0.169403 -0.724464 -1.065567
v 84.881340 12.238236 3.821638
vn 0.300207 -0.210507 -0.084118
v 100.634514 18.366919 14.161534
vn 0.819158 -0.889160 -0.365692
v 96.485657 16.956257 6.260848
vn 0.047364 -0.291468 -0.048779
v 50.536026 4.130634 7.943012
vn 0.400973 -1.520875 -0.117446
v 79.588493 13.487253 1.246341
vn 0.455264 -1.542272 -0.115064
v 91.249397 15.884113 2.502585
vn -1.214850 -0.062110 -0.131109
v 47.623833 2.749768 21.486824
vn 0.000980 0.000050 0.010523
v 38.878399 97.459999 29.675566
vn -0.201381 -0.605392 0.024663
v 10.543200 70.978470 24.197231
vn 0.155688 0.045566 1.108549
v 39.632069 82.436028 29.933493
vn 0.000000 0.000000 -0.674741
v 44.123993 103.810005 28.004253
vn 0.000000 0.000000 -0.078539
v 16.653400 103.810005 22.500065
vn 0.000000 0.000000 -2.827437
v 10.400642 98.198906 22.500065
vn -0.110779 -0.053451 2.755987
v 78.968124 16.678360 34.286896
vn 0.941096 0.298751 2.184619
v 89.724602 15.807919 33.946495
vn 0.037660 -0.703574 1.244074
v 61.064514 6.995763 31.882586
vn 0.740900 -1.007960 0.201862
v 100.233116 17.607012 22.804096
# 185 vertices, 0 vertices normals

f 6//6 7//7 18//18
f 9//9 81//81 5//5
f 13//13 17//17 16//16
f 10//10 163//163 71//71
f 78//78 24//24 88//88
f 87//87 86//86 4//4
f 87//87 4//4 90//90
f 33//33 86//86 88//88
f 4//4 5//5 90//90
f 86//86 33//33 4//4
f 4//4 33//33 3//3
f 4//4 3//3 5//5
f 8//8 13//13 7//7
f 18//18 9//9 6//6
f 6//6 9//9 5//5
f 9//9 18//18 77//77
f 12//12 7//7 6//6
f 22//22 10//10 21//21
f 30//30 11//11 14//14
f 14//14 8//8 32//32
f 12//12 8//8 7//7
f 19//19 77//77 18//18
f 13//13 8//8 14//14
f 13//13 14//14 11//11
f 21//21 10//10 2//2
f 2//2 82//82 21//21
f 21//21 82//82 20//20
f 82//82 11//11 20//20
f 94//94 18//18 7//7
f 15//15 7//7 13//13
f 15//15 13//13 16//16
f 162//162 163//163 10//10
f 11//11 17//17 13//13
f 18//18 94//94 19//19
f 30//30 29//29 11//11
f 11//11 29//29 20//20
f 21//21 20//20 22//22
f 10//10 22//22 26//26
f 1//1 27//27 111//111
f 111//111 27//27 23//23
f 23//23 25//25 112//112
f 112//112 24//24 78//78
f 27//27 28//28 31//31
f 20//20 31//31 28//28
f 32//32 25//25 31//31
f 31//31 25//25 27//27
f 28//28 26//26 20//20
f 31//31 20//20 29//29
f 8//8 24//24 32//32
f 33//33 88//88 24//24
f 33//33 24//24 8//8
f 32//32 24//24 112//112
f 32//32 112//112 25//25
f 25//25 23//23 27//27
f 28//28 27//27 1//1
f 28//28 1//1 26//26
f 26//26 22//22 20//20
f 31//31 29//29 30//30
f 31//31 30//30 32//32
f 32//32 30//30 14//14
f 33//33 8//8 12//12
f 33//33 12//12 3//3
f 3//3 12//12 6//6
f 3//3 6//6 5//5
f 5//5 81//81 90//90
f 73//73 159//159 75//75
f 75//75 159//159 160//160
f 75//75 160//160 34//34
f 26//26 34//34 160//160
f 163//163 162//162 73//73
f 73//73 162//162 159//159
f 44//44 126//126 41//41
f 148//148 119//119 147//147
f 145//145 36//36 143//143
f 59//59 66//66 39//39
f 59//59 39//39 40//40
f 116//116 157//157 39//39
f 39//39 157//157 40//40
f 40//40 35//35 43//43
f 40//40 43//43 44//44
f 56//56 50//50 65//65
f 65//65 59//59 44//44
f 56//56 42//42 54//54
f 41//41 126//126 42//42
f 44//44 43//43 45//45
f 44//44 129//129 126//126
f 41//41 42//42 56//56
f 45//45 129//129 44//44
f 182//182 45//45 43//43
f 182//182 43//43 35//35
f 38//38 64//64 178//178
f 178//178 46//46 131//131
f 46//46 68//68 47//47
f 52//52 46//46 47//47
f 47//47 67//67 49//49
f 49//49 67//67 51//51
f 56//56 48//48 50//50
f 51//51 48//48 54//54
f 130//130 132//132 178//178
f 178//178 131//131 130//130
f 131//131 46//46 137//137
f 134//134 137//137 52//52
f 52//52 137//137 46//46
f 55//55 134//134 52//52
f 41//41 56//56 44//44
f 65//65 44//44 56//56
f 51//51 54//54 53//53
f 48//48 56//56 54//54
f 49//49 51//51 53//53
f 49//49 53//53 55//55
f 49//49 55//55 47//47
f 47//47 55//55 52//52
f 63//63 142//142 57//57
f 36//36 145//145 58//58
f 36//36 37//37 143//143
f 62//62 57//57 37//37
f 38//38 63//63 64//64
f 64//64 63//63 57//57
f 64//64 57//57 62//62
f 62//62 36//36 67//67
f 119//119 66//66 60//60
f 58//58 60//60 67//67
f 58//58 67//67 36//36
f 59//59 50//50 66//66
f 116//116 39//39 61//61
f 61//61 39//39 66//66
f 61//61 66//66 119//119
f 147//147 119//119 60//60
f 147//147 60//60 58//58
f 37//37 36//36 62//62
f 142//142 63//63 117//117
f 117//117 63//63 38//38
f 62//62 67//67 68//68
f 62//62 68//68 64//64
f 64//64 46//46 178//178
f 61//61 122//122 116//116
f 40//40 44//44 59//59
f 59//59 65//65 50//50
f 66//66 50//50 48//48
f 66//66 48//48 60//60
f 60//60 48//48 51//51
f 60//60 51//51 67//67
f 67//67 47//47 68//68
f 64//64 68//68 46//46
f 176//176 69//69 38//38
f 151//151 69//69 176//176
f 178//178 176//176 38//38
f 38//38 69//69 151//151
f 117//117 38//38 151//151
f 73//73 70//70 153//153
f 71//71 73//73 153//153
f 72//72 71//71 153//153
f 156//156 72//72 153//153
f 34//34 161//161 74//74
f 70//70 73//73 164//164
f 164//164 73//73 75//75
f 34//34 74//74 75//75
f 75//75 74//74 165//165
f 75//75 165//165 164//164
f 89//89 86//86 87//87
f 161//161 26//26 110//110
f 90//90 80//80 168//168
f 81//81 9//9 173//173
f 173//173 9//9 77//77
f 173//173 77//77 169//169
f 169//169 77//77 174//174
f 77//77 19//19 174//174
f 19//19 171//171 174//174
f 171//171 100//100 170//170
f 170//170 100//100 140//140
f 95//95 7//7 15//15
f 83//83 7//7 95//95
f 94//94 7//7 83//83
f 118//118 84//84 76//76
f 118//118 76//76 120//120
f 109//109 76//76 84//84
f 84//84 108//108 109//109
f 78//78 88//88 109//109
f 120//120 85//85 175//175
f 89//89 76//76 86//86
f 109//109 86//86 76//76
f 86//86 109//109 88//88
f 172//172 85//85 89//89
f 89//89 87//87 168//168
f 90//90 168//168 87//87
f 89//89 120//120 76//76
f 81//81 80//80 90//90
f 141//141 99//99 95//95
f 91//91 140//140 100//100
f 91//91 100//100 99//99
f 96//96 2//2 97//97
f 92//92 93//93 97//97
f 97//97 93//93 96//96
f 92//92 97//97 71//71
f 82//82 2//2 96//96
f 82//82 96//96 11//11
f 11//11 96//96 98//98
f 11//11 98//98 17//17
f 10//10 71//71 2//2
f 95//95 99//99 83//83
f 83//83 99//99 94//94
f 94//94 99//99 19//19
f 99//99 100//100 19//19
f 19//19 100//100 171//171
f 15//15 125//125 95//95
f 16//16 17//17 98//98
f 97//97 2//2 71//71
f 98//98 96//96 114//114
f 114//114 96//96 93//93
f 141//141 95//95 124//124
f 124//124 95//95 125//125
f 125//125 16//16 138//138
f 125//125 15//15 16//16
f 138//138 16//16 139//139
f 91//91 99//99 141//141
f 98//98 139//139 16//16
f 110//110 149//149 102//102
f 110//110 102//102 161//161
f 161//161 102//102 101//101
f 34//34 26//26 161//161
f 1//1 110//110 26//26
f 79//79 110//110 104//104
f 110//110 79//79 149//149
f 104//104 107//107 103//103
f 104//104 103//103 79//79
f 105//105 107//107 104//104
f 106//106 107//107 105//105
f 105//105 112//112 78//78
f 105//105 108//108 106//106
f 78//78 108//108 105//105
f 109//109 108//108 78//78
f 120//120 89//89 85//85
f 110//110 1//1 111//111
f 104//104 110//110 111//111
f 84//84 106//106 108//108
f 112//112 105//105 23//23
f 111//111 23//23 105//105
f 111//111 105//105 104//104
f 42//42 138//138 136//136
f 45//45 183//183 128//128
f 45//45 158//158 183//183
f 184//184 157//157 116//116
f 116//116 123//123 184//184
f 142//142 117//117 144//144
f 147//147 58//58 145//145
f 122//122 61//61 119//119
f 182//182 158//158 45//45
f 148//148 84//84 146//146
f 84//84 118//118 146//146
f 122//122 146//146 118//118
f 122//122 120//120 121//121
f 175//175 121//121 120//120
f 118//118 120//120 122//122
f 122//122 121//121 123//123
f 123//123 121//121 175//175
f 122//122 123//123 116//116
f 157//157 35//35 40//40
f 124//124 125//125 42//42
f 124//124 42//42 126//126
f 141//141 124//124 126//126
f 91//91 141//141 126//126
f 91//91 126//126 127//127
f 127//127 126//126 129//129
f 140//140 185//185 170//170
f 115//115 127//127 128//128
f 128//128 127//127 129//129
f 128//128 129//129 45//45
f 185//185 115//115 128//128
f 54//54 136//136 53//53
f 53//53 136//136 55//55
f 133//133 130//130 131//131
f 133//133 92//92 132//132
f 72//72 132//132 92//92
f 71//71 72//72 92//92
f 132//132 130//130 133//133
f 93//93 134//134 114//114
f 114//114 134//134 135//135
f 139//139 55//55 136//136
f 131//131 137//137 133//133
f 133//133 137//137 93//93
f 93//93 137//137 134//134
f 134//134 55//55 135//135
f 135//135 55//55 139//139
f 42//42 136//136 54//54
f 42//42 125//125 138//138
f 136//136 138//138 139//139
f 139//139 98//98 135//135
f 135//135 98//98 114//114
f 93//93 92//92 133//133
f 185//185 140//140 115//115
f 115//115 140//140 91//91
f 115//115 91//91 127//127
f 102//102 144//144 101//101
f 101//101 144//144 177//177
f 144//144 117//117 177//177
f 143//143 37//37 149//149
f 143//143 149//149 79//79
f 149//149 142//142 144//144
f 145//145 103//103 106//106
f 106//106 103//103 107//107
f 148//148 106//106 84//84
f 148//148 145//145 106//106
f 103//103 143//143 79//79
f 143//143 103//103 145//145
f 148//148 146//146 119//119
f 119//119 146//146 122//122
f 147//147 145//145 148//148
f 149//149 37//37 142//142
f 142//142 37//37 57//57
f 102//102 149//149 144//144
f 132//132 72//72 179//179
f 179//179 72//72 156//156
f 176//176 132//132 179//179
f 176//176 179//179 151//151
f 151//151 179//179 150//150
f 150//150 152//152 151//151
f 113//113 117//117 152//152
f 152//152 117//117 151//151
f 164//164 166//166 70//70
f 70//70 166//166 153//153
f 179//179 156//156 153//153
f 180//180 150//150 179//179
f 152//152 181//181 113//113
f 113//113 181//181 155//155
f 167//167 165//165 154//154
f 154//154 165//165 74//74
f 177//177 113//113 155//155
f 101//101 177//177 155//155
f 74//74 161//161 154//154
f 101//101 155//155 154//154
f 154//154 161//161 101//101
f 184//184 168//168 157//157
f 157//157 168//168 35//35
f 35//35 168//168 80//80
f 169//169 158//158 173//173
f 173//173 158//158 81//81
f 81//81 158//158 35//35
f 81//81 35//35 80//80
f 175//175 85//85 168//168
f 168//168 123//123 175//175
f 85//85 172//172 168//168
f 184//184 123//123 168//168
f 170//170 185//185 169//169
f 169//169 128//128 183//183
f 169//169 183//183 158//158
f 168//168 172//172 89//89
f 169//169 174//174 171//171
f 169//169 185//185 128//128
f 169//169 171//171 170//170
f 159//159 162//162 160//160
f 160//160 162//162 10//10
f 160//160 10//10 26//26
f 73//73 71//71 163//163
f 166//166 164//164 165//165
f 166//166 165//165 167//167
f 179//179 153//153 155//155
f 155//155 153//153 154//154
f 154//154 153//153 167//167
f 167//167 153//153 166//166
f 178//178 132//132 176//176
f 177//177 117//117 113//113
f 181//181 152//152 150//150
f 181//181 150//150 180//180
f 179//179 155//155 180//180
f 180//180 155//155 181//181
f 35//35 158//158 182//182
# 366 faces, 0 coords texture

# End of File
