####
#
# OBJ File Generated by Meshlab
#
####
# Object Bunny-LowPoly.obj
#
# Vertices: 148
# Faces: 292
#
####
vn -0.377756 0.506996 1.374337
v 36.518944 26.357403 43.721592
vn -0.521550 0.019812 0.714006
v 31.117165 26.499443 112.434212
vn -0.096600 -0.567227 0.443582
v 10.061195 -10.791482 10.217390
vn 0.202241 1.035536 0.309411
v 16.219772 41.004177 112.513641
vn 1.033206 0.193436 -0.076012
v 4.804305 14.353054 89.171173
vn -0.444686 0.187807 -0.098547
v -17.016325 6.631052 62.737965
vn 0.217340 -0.972379 0.496764
v 7.051953 -3.029980 92.852959
vn -0.056677 1.633620 -1.413073
v 28.902403 20.602587 94.550209
vn 1.379341 0.386869 -0.225735
v 35.363232 30.643520 105.768845
vn 0.504333 -0.482123 0.939144
v 82.011826 -22.448847 25.699102
vn 0.270018 -0.258127 0.502815
v 82.996773 -9.758068 31.685160
vn 0.348465 -0.628738 0.190831
v 55.152161 -35.401314 50.349213
vn 0.384133 -0.693092 0.210364
v 71.847755 -25.795000 51.512608
vn 0.447392 0.378417 0.251512
v 59.223038 11.886848 63.991158
vn 0.264661 0.441200 -1.028300
v -2.564851 12.458483 77.948547
vn -1.383070 0.017351 0.593004
v -23.889854 -7.028679 67.722076
vn 0.882835 0.180551 -0.005473
v 76.141289 -2.216267 55.115955
vn -0.065612 -0.427025 0.746839
v 3.630415 -19.401827 88.538704
vn -1.106322 0.374043 0.142817
v 8.905133 5.376803 5.274907
vn -0.701017 0.237011 0.090495
v 13.467396 17.502567 8.858381
vn -0.590380 0.257338 0.005933
v -16.081835 1.182789 36.272312
vn 0.356406 0.327173 0.776442
v 63.769543 -6.074312 69.472572
vn -0.457813 -0.681879 0.706542
v -14.117411 -16.906992 88.405998
vn -0.188154 -0.109347 0.478170
v 27.161108 -20.210508 64.589813
vn 0.142694 -0.468515 0.376463
v 62.428028 -28.382292 60.188969
vn 1.121674 -0.912849 -0.663730
v 74.377953 -16.983009 5.280865
vn 0.309267 0.674033 0.316750
v 68.242119 9.494752 51.547035
vn 1.496436 0.009816 -0.271198
v 54.831985 12.990793 5.351871
vn 0.602631 0.003953 -0.109214
v 54.923351 -0.264993 5.376235
vn -0.128344 -1.678470 0.143955
v 27.724054 -39.776821 41.868996
vn -0.788314 0.450641 0.027592
v -17.362780 -2.177474 54.555843
vn -0.850742 0.486328 0.029777
v -8.192490 14.455393 44.901501
vn -0.347938 1.207871 -0.710315
v 38.374302 19.974197 16.788998
vn -0.405610 0.335347 0.077300
v -9.316551 8.589153 87.904594
vn -1.084602 -0.715992 1.340266
v 1.371671 -29.638382 8.035669
vn -0.580265 0.030889 0.115869
v -22.557022 -7.863877 60.116085
vn -0.329974 -0.572810 0.468971
v -6.772095 -27.367222 83.070396
vn 0.491333 1.871422 0.373354
v 4.804572 10.327667 78.931030
vn -0.673556 -0.244048 0.060922
v -0.456871 -12.881787 5.253883
vn 0.238959 -0.117660 -0.146450
v 19.485271 38.630070 93.621155
vn -0.252914 0.237167 0.019740
v -19.341692 -1.290740 78.161926
vn 0.241020 0.711422 -0.514368
v 70.471558 -5.591371 5.294834
vn -0.268953 -0.653971 -0.490971
v -1.425834 -28.697832 35.927811
vn -0.037643 1.172331 0.034188
v 41.233246 26.831974 32.638805
vn 0.618625 0.347741 0.178630
v 18.309347 45.197327 97.114212
vn -0.107776 0.048176 0.409614
v -21.593699 -5.908784 86.379417
vn 0.495117 1.192965 0.651014
v 79.977448 -3.087993 21.758730
vn -1.382722 0.875896 0.797034
v 9.679700 4.997551 100.124702
vn -0.699667 0.443210 0.403305
v 6.386195 8.425776 90.643585
vn -0.682871 -0.624554 0.231109
v -22.721935 -26.361109 64.221367
vn 0.558701 -0.848462 0.356276
v 1.500826 -25.917610 65.004501
vn 0.331180 -1.412728 0.661992
v 42.551220 -31.091362 64.351578
vn -0.098677 0.629364 1.009862
v 43.605114 11.608113 63.727177
vn 0.007570 -0.005385 -0.064224
v -6.452787 -22.764629 5.375844
vn 0.326846 -0.057785 0.080650
v 13.977301 -17.521719 65.433876
vn 1.726995 -0.305324 0.426142
v 13.184771 0.510763 81.565674
vn -0.933514 -0.715608 0.322399
v 23.549337 -31.615866 47.895332
vn -0.425550 -0.326216 0.146968
v 16.296309 -30.711380 28.901667
vn -0.153285 0.548100 -0.019011
v -5.434093 1.448322 7.630634
vn -0.144945 -1.196918 0.299695
v 75.235497 -20.461643 30.358242
vn -0.003401 0.151850 -0.256782
v 28.565018 26.427288 32.567257
vn 0.264067 -0.093662 1.301082
v 38.195709 23.468212 110.779343
vn -0.309490 -0.585944 -0.257283
v -19.512016 -24.397982 57.556541
vn -0.560206 -1.060614 -0.465707
v -14.483150 -32.904858 70.881027
vn -0.203927 0.987311 0.483935
v 30.041061 30.601151 103.612564
vn -0.333702 0.561569 0.318975
v -2.582051 3.291964 90.299576
vn 0.509655 0.157179 -0.092338
v 74.177460 6.971712 41.442955
vn 1.199736 0.370001 -0.217364
v 77.443840 -9.292519 31.786386
vn 0.074698 -0.338377 0.176565
v 29.542870 11.765723 111.693085
vn -0.520503 -1.046648 0.069691
v 7.337845 -24.842545 15.425775
vn -0.416741 0.016225 -0.105090
v -20.018257 -24.491413 77.262794
vn -0.764402 0.460226 0.339036
v 29.226992 18.707151 44.539494
vn -0.658800 0.933814 -0.416904
v -4.462166 33.056183 103.480209
vn -0.388967 0.551340 -0.246147
v 8.380380 43.984310 107.663826
vn -0.082668 -1.029148 0.720980
v 12.460421 -27.631361 52.311466
vn 0.091695 -0.853069 0.888009
v 1.880368 37.066368 110.211441
vn -0.052961 -1.764841 -0.527918
v 46.750908 -33.683292 10.309030
vn -0.479000 0.642750 1.767745
v -1.814861 -7.484867 11.859421
vn -0.166116 0.222904 0.613049
v 6.419781 -6.827970 13.851887
vn 0.678420 -0.817876 -0.099220
v 5.315333 -16.999882 80.260056
vn 0.069256 -0.956054 0.082289
v 39.498386 -40.304123 46.218288
vn 0.105572 -1.457386 0.125440
v 49.207832 -39.966232 41.972366
vn -0.489705 0.468261 -0.320155
v -7.553542 1.506406 24.984909
vn 0.122661 -0.664462 0.013745
v 19.874365 -37.050163 7.225319
vn 0.354261 -1.919059 0.039697
v 31.452627 -34.743919 15.389469
vn 0.478186 -0.211304 0.036016
v 10.397546 -3.888087 89.709541
vn 0.000546 -0.000086 -0.168641
v 22.395800 18.550373 5.311866
vn -0.342747 0.671600 -0.027346
v 6.239258 4.278805 21.569592
vn -0.105729 0.207171 -0.008435
v 31.862989 17.091349 15.076270
vn 0.178319 0.372676 1.456069
v 16.881767 -3.674679 71.507210
vn 0.429469 -0.286722 1.003366
v 48.751999 -10.750254 75.248901
vn 0.546996 -0.365185 1.277945
v 47.880558 -23.292019 72.037971
vn -0.351737 -0.079681 -0.177767
v -20.511681 -9.214548 46.441719
vn -2.024179 -0.458548 -1.023018
v -15.619654 -19.234953 41.253635
vn 0.318352 -0.159198 0.698793
v 67.756691 -19.785345 64.532501
vn 0.935018 -0.161548 -0.182396
v 77.160118 -20.248390 40.035561
vn 0.138482 -1.201432 0.180763
v -1.693329 -30.414913 44.653904
vn -0.584214 -0.079565 -0.335835
v -10.108046 -20.983580 31.131956
vn 1.445015 0.078765 -1.979352
v 3.330716 19.617216 82.537445
vn 1.252424 0.807288 -0.199990
v 63.092522 13.910298 22.043007
vn 0.872749 0.562557 -0.139362
v 63.935928 15.736155 34.695133
vn -2.178672 0.869644 0.234390
v 3.269821 34.315594 94.082901
vn -0.545068 0.217571 0.058640
v 6.276077 42.754452 90.716042
vn 0.010729 0.097828 -0.205453
v 56.439388 12.568314 14.206014
vn -1.059492 0.821591 0.409098
v -5.462559 11.136494 58.636871
vn -0.244136 0.456844 -0.615102
v 2.113453 16.716484 32.444763
vn 0.336232 -0.248685 -0.000958
v 22.616880 2.458947 96.787277
vn -1.056126 0.156476 0.456945
v -2.154797 20.623608 100.336327
vn -1.456802 0.215840 0.630302
v -4.245932 23.641005 94.469864
vn 0.024778 1.218438 -0.199573
v 74.103683 -2.433340 25.026283
vn -0.744322 -1.146116 -1.229417
v -7.135612 -15.087037 23.835348
vn -0.817568 -0.604775 0.263135
v 12.697721 -28.181570 5.310379
vn 0.471150 -0.546389 -0.034323
v 67.265984 -25.761890 5.335831
vn 1.286793 -1.492286 -0.093741
v 64.277557 -29.077145 17.089655
vn 0.564568 0.568537 -0.923252
v 65.392700 1.685113 12.979102
vn 1.044509 -1.039345 -0.186518
v 62.885677 -34.117687 37.382732
vn 0.340250 -0.237042 1.072256
v 29.236950 1.372280 68.702370
vn 0.082542 0.895255 -0.211225
v 5.591862 20.200201 48.569427
vn 0.069991 0.759129 -0.179108
v 21.050880 14.744042 31.485106
vn 0.097015 0.382670 0.201091
v 57.814293 13.204912 53.833424
vn 0.137002 0.540400 0.283977
v 32.650837 16.574064 59.561928
vn -0.025974 0.675217 0.823724
v 50.795670 1.508498 72.232697
vn 0.291327 0.390118 0.140627
v 49.960499 21.494259 29.366737
vn -0.898661 0.459674 -0.394248
v 23.362013 20.396402 106.938759
vn -0.432421 0.063208 0.908015
v 10.393107 6.124787 14.842429
vn 0.149776 0.173895 -0.276517
v 4.598203 36.358456 84.128960
vn -0.656299 -0.897324 -0.146264
v 17.847952 -29.947573 17.253424
vn -0.279016 0.191610 -0.133497
v -7.096308 11.379349 82.828041
vn 0.347017 -0.780985 -0.186497
v 42.713348 -41.427631 30.459379
vn 0.565422 -1.272520 -0.303875
v 55.135765 -33.818977 21.711510
vn 1.328119 -1.323980 0.509240
v 35.530037 14.819423 95.245407
vn 0.128168 -0.287617 0.279899
v 21.240665 36.328995 104.226685
vn 0.744212 -1.670056 1.625247
v 10.608130 28.953554 101.516609
vn -0.090361 -0.143015 -0.583289
v -4.711780 -24.598978 55.313019
vn -0.069754 -0.593889 -0.334029
v 31.180925 -41.306591 27.114344
vn -0.093767 -0.604343 1.178759
v -4.205371 -8.040327 93.740364
vn -0.955873 0.058782 -1.516887
v -15.295059 -17.339926 55.172718
vn 0.432315 0.148601 -0.287767
v 84.232941 -10.809189 23.274181
vn -0.002681 1.948031 0.649204
v 17.373781 15.595675 62.434635
vn -0.126991 -0.613053 -0.782821
v -5.818198 -33.934971 62.803837
vn -0.488743 -0.024173 0.023356
v 7.373121 -20.273106 19.886049
vn 0.035700 0.331106 0.302621
v 11.322732 10.695372 68.510033
vn 0.746697 1.226909 0.098395
v 9.657615 7.293525 79.935822
vn 0.000148 0.001228 -0.058218
v 46.470150 -32.180119 5.312054
vn 0.117164 0.929411 0.468520
v 56.676582 18.933500 42.754032
vn 0.113847 0.903101 0.455257
v 46.159988 16.625916 49.961536
vn 0.070146 -0.909330 -0.238648
v 55.259842 -29.120697 14.605011
vn 0.645646 -0.358766 -0.679376
v 36.363209 19.849846 93.380737
# 148 vertices, 0 vertices normals

f 72//72 146//146 1//1
f 77//77 147//147 130//130
f 2//2 124//124 69//69
f 55//55 75//75 24//24
f 72//72 119//119 118//118
f 145//145 101//101 1//1
f 63//63 50//50 36//36
f 100//100 110//110 115//115
f 74//74 45//45 103//103
f 104//104 123//123 100//100
f 141//141 3//3 70//70
f 123//123 33//33 61//61
f 78//78 39//39 3//3
f 125//125 89//89 20//20
f 38//38 143//143 142//142
f 11//11 10//10 138//138
f 4//4 45//45 74//74
f 38//38 99//99 5//5
f 16//16 6//6 36//36
f 86//86 107//107 7//7
f 84//84 85//85 127//127
f 8//8 148//148 143//143
f 14//14 27//27 120//120
f 96//96 114//114 60//60
f 62//62 148//148 9//9
f 60//60 10//10 11//11
f 12//12 13//13 25//25
f 17//17 96//96 68//68
f 93//93 94//94 137//137
f 91//91 22//22 122//122
f 21//21 111//111 98//98
f 14//14 17//17 27//27
f 56//56 90//90 143//143
f 128//128 103//103 126//126
f 31//31 6//6 105//105
f 118//118 32//32 105//105
f 99//99 38//38 15//15
f 76//76 4//4 74//74
f 66//66 7//7 48//48
f 136//136 7//7 66//66
f 5//5 66//66 49//49
f 46//46 23//23 136//136
f 16//16 71//71 41//41
f 17//17 68//68 67//67
f 18//18 23//23 37//37
f 100//100 115//115 104//104
f 21//21 32//32 83//83
f 142//142 118//118 105//105
f 58//58 141//141 127//127
f 19//19 125//125 20//20
f 28//28 29//29 87//87
f 31//31 21//21 93//93
f 122//122 22//22 14//14
f 37//37 23//23 71//71
f 92//92 91//91 24//24
f 49//49 38//38 5//5
f 52//52 25//25 92//92
f 87//87 29//29 54//54
f 74//74 73//73 76//76
f 121//121 146//146 72//72
f 119//119 89//89 88//88
f 134//134 94//94 97//97
f 49//49 8//8 143//143
f 26//26 10//10 113//113
f 17//17 14//14 22//22
f 120//120 27//27 145//145
f 59//59 19//19 39//39
f 87//87 20//20 89//89
f 28//28 104//104 29//29
f 52//52 92//92 24//24
f 17//17 22//22 95//95
f 129//129 116//116 82//82
f 30//30 135//135 81//81
f 1//1 61//61 72//72
f 31//31 32//32 21//21
f 89//89 61//61 33//33
f 117//117 91//91 122//122
f 93//93 137//137 31//31
f 61//61 89//89 119//119
f 2//2 62//62 9//9
f 20//20 87//87 19//19
f 34//34 41//41 46//46
f 35//35 70//70 54//54
f 109//109 128//128 34//34
f 50//50 71//71 36//36
f 134//134 75//75 55//55
f 7//7 69//69 48//48
f 71//71 64//64 37//37
f 145//145 1//1 146//146
f 15//15 38//38 142//142
f 39//39 78//78 59//59
f 5//5 99//99 40//40
f 142//142 139//139 118//118
f 54//54 3//3 39//39
f 53//53 117//117 122//122
f 40//40 132//132 5//5
f 80//80 140//140 51//51
f 56//56 55//55 90//90
f 34//34 128//128 41//41
f 80//80 55//55 86//86
f 135//135 77//77 129//129
f 6//6 31//31 36//36
f 17//17 67//67 27//27
f 113//113 54//54 42//42
f 29//29 115//115 42//42
f 13//13 116//116 96//96
f 75//75 134//134 97//97
f 118//118 121//121 72//72
f 24//24 57//57 52//52
f 43//43 141//141 58//58
f 124//124 8//8 49//49
f 44//44 61//61 1//1
f 45//45 126//126 103//103
f 4//4 132//132 45//45
f 34//34 46//46 66//66
f 11//11 47//47 110//110
f 48//48 124//124 49//49
f 12//12 25//25 81//81
f 71//71 50//50 64//64
f 130//130 114//114 116//116
f 80//80 51//51 55//55
f 25//25 52//52 81//81
f 148//148 8//8 65//65
f 121//121 117//117 53//53
f 52//52 57//57 30//30
f 39//39 87//87 54//54
f 128//128 6//6 41//41
f 43//43 97//97 98//98
f 86//86 55//55 56//56
f 60//60 11//11 68//68
f 11//11 138//138 47//47
f 57//57 58//58 30//30
f 117//117 121//121 142//142
f 144//144 54//54 113//113
f 106//106 119//119 88//88
f 58//58 57//57 75//75
f 19//19 59//59 125//125
f 113//113 10//10 60//60
f 44//44 123//123 61//61
f 124//124 48//48 69//69
f 62//62 2//2 69//69
f 15//15 105//105 128//128
f 63//63 140//140 64//64
f 2//2 9//9 65//65
f 135//135 30//30 58//58
f 80//80 37//37 140//140
f 48//48 49//49 66//66
f 67//67 68//68 110//110
f 107//107 69//69 7//7
f 110//110 68//68 11//11
f 104//104 28//28 89//89
f 112//112 127//127 70//70
f 10//10 26//26 138//138
f 141//141 79//79 3//3
f 91//91 117//117 24//24
f 84//84 112//112 144//144
f 29//29 42//42 54//54
f 46//46 41//41 71//71
f 72//72 61//61 119//119
f 73//73 74//74 102//102
f 46//46 136//136 66//66
f 75//75 57//57 24//24
f 121//121 120//120 146//146
f 133//133 4//4 76//76
f 144//144 77//77 85//85
f 127//127 141//141 70//70
f 59//59 78//78 79//79
f 37//37 80//80 18//18
f 101//101 100//100 123//123
f 81//81 129//129 82//82
f 52//52 30//30 81//81
f 14//14 120//120 53//53
f 106//106 83//83 32//32
f 84//84 144//144 85//85
f 80//80 86//86 18//18
f 73//73 102//102 109//109
f 19//19 87//87 39//39
f 95//95 25//25 13//13
f 43//43 58//58 97//97
f 88//88 125//125 79//79
f 147//147 144//144 113//113
f 125//125 88//88 89//89
f 130//130 147//147 114//114
f 142//142 90//90 117//117
f 95//95 91//91 92//92
f 70//70 35//35 112//112
f 101//101 145//145 27//27
f 93//93 98//98 94//94
f 134//134 55//55 51//51
f 91//91 95//95 22//22
f 15//15 142//142 105//105
f 96//96 60//60 68//68
f 137//137 94//94 134//134
f 118//118 106//106 32//32
f 132//132 40//40 45//45
f 58//58 75//75 97//97
f 110//110 101//101 67//67
f 126//126 15//15 128//128
f 21//21 83//83 111//111
f 93//93 21//21 98//98
f 133//133 132//132 4//4
f 86//86 136//136 18//18
f 99//99 15//15 126//126
f 110//110 100//100 101//101
f 102//102 103//103 128//128
f 95//95 13//13 17//17
f 3//3 54//54 70//70
f 33//33 104//104 89//89
f 25//25 95//95 92//92
f 134//134 51//51 140//140
f 105//105 32//32 31//31
f 83//83 106//106 88//88
f 65//65 9//9 148//148
f 107//107 62//62 69//69
f 108//108 109//109 34//34
f 47//47 42//42 110//110
f 98//98 111//111 141//141
f 127//127 112//112 84//84
f 113//113 60//60 114//114
f 86//86 56//56 107//107
f 73//73 109//109 108//108
f 148//148 56//56 143//143
f 26//26 113//113 42//42
f 81//81 135//135 129//129
f 137//137 36//36 31//31
f 35//35 54//54 112//112
f 74//74 103//103 102//102
f 126//126 40//40 99//99
f 3//3 79//79 78//78
f 104//104 115//115 29//29
f 47//47 138//138 42//42
f 83//83 88//88 111//111
f 96//96 116//116 114//114
f 108//108 34//34 66//66
f 117//117 90//90 24//24
f 127//127 85//85 135//135
f 106//106 118//118 119//119
f 53//53 120//120 121//121
f 122//122 14//14 53//53
f 1//1 123//123 44//44
f 8//8 124//124 65//65
f 59//59 79//79 125//125
f 40//40 126//126 45//45
f 135//135 58//58 127//127
f 46//46 71//71 23//23
f 50//50 63//63 64//64
f 12//12 81//81 82//82
f 101//101 27//27 67//67
f 102//102 128//128 109//109
f 116//116 129//129 130//130
f 107//107 56//56 131//131
f 66//66 5//5 133//133
f 90//90 55//55 24//24
f 131//131 62//62 107//107
f 110//110 42//42 115//115
f 71//71 16//16 36//36
f 88//88 141//141 111//111
f 13//13 96//96 17//17
f 108//108 76//76 73//73
f 5//5 132//132 133//133
f 134//134 63//63 137//137
f 123//123 104//104 33//33
f 135//135 85//85 77//77
f 136//136 23//23 18//18
f 98//98 141//141 43//43
f 12//12 116//116 13//13
f 63//63 36//36 137//137
f 12//12 82//82 116//116
f 138//138 26//26 42//42
f 128//128 105//105 6//6
f 101//101 123//123 1//1
f 121//121 118//118 139//139
f 7//7 136//136 86//86
f 134//134 140//140 63//63
f 79//79 141//141 88//88
f 139//139 142//142 121//121
f 89//89 28//28 87//87
f 49//49 143//143 38//38
f 41//41 6//6 16//16
f 77//77 144//144 147//147
f 94//94 98//98 97//97
f 140//140 37//37 64//64
f 108//108 66//66 133//133
f 112//112 54//54 144//144
f 120//120 145//145 146//146
f 77//77 130//130 129//129
f 108//108 133//133 76//76
f 65//65 124//124 2//2
f 147//147 113//113 114//114
f 143//143 90//90 142//142
f 131//131 56//56 148//148
f 62//62 131//131 148//148
# 292 faces, 0 coords texture

# End of File
