####
#
# OBJ File Generated by Meshlab
#
####
# Object fox.obj
#
# Vertices: 190
# Faces: 376
#
####
vn -0.634649 0.379904 0.093530
v 62.739700 64.000748 64.430000
vn -1.784825 -0.393472 0.111887
v 61.143700 55.749741 44.763004
vn -0.518393 -0.114282 0.032497
v 62.356697 53.216743 55.205006
vn -0.619048 0.440846 0.465226
v 72.494698 70.647743 95.436005
vn -0.248304 0.462942 0.228600
v 68.152702 71.632744 88.724998
vn 1.456536 -0.001993 0.463272
v 99.122696 89.371742 47.483006
vn -0.695821 0.116709 -0.245257
v 52.007698 95.374741 10.497000
vn -0.097970 0.180756 0.025182
v 64.281700 73.435745 35.395004
vn -0.078122 0.144138 0.020081
v 65.733696 71.709747 53.433002
vn -0.318201 0.463575 0.234325
v 64.114700 68.993744 34.773003
vn -0.436804 0.082474 0.288469
v 62.046700 61.275742 97.021004
vn -0.418075 0.423338 0.158553
v 55.944698 61.518745 85.808998
vn -0.560898 0.567959 0.212719
v 64.200699 71.568741 80.745003
vn 1.414734 -0.094627 0.912246
v 100.141701 73.043747 44.209003
vn -0.252111 0.095351 0.142279
v 50.732697 85.597748 14.790000
vn -0.266852 0.994105 -0.228509
v 69.646698 72.777740 78.164001
vn -0.370064 -0.062780 0.369398
v 53.889698 52.106743 87.291000
vn 0.095904 0.153382 0.404087
v 85.546700 91.266747 55.622005
vn 0.872746 0.105865 0.089240
v 105.610703 93.889748 13.705000
vn 1.658744 1.188483 0.735192
v 103.929703 92.004745 32.381001
vn 1.156065 0.145255 0.846191
v 71.111702 72.426743 107.482002
vn 1.079635 0.135652 0.790248
v 70.733696 67.436745 108.855003
vn 0.653131 0.847754 0.326245
v 72.633698 73.949745 92.492004
vn -0.360469 0.615464 0.300971
v 58.342697 67.039742 77.390999
vn -0.771001 0.532129 0.427116
v 69.885696 95.808746 36.319004
vn -1.299519 0.009246 0.347871
v 64.748703 77.858742 37.022003
vn 0.560129 0.498073 -0.075585
v 79.469696 66.946747 97.004005
vn -0.745796 0.802956 0.310770
v 68.077698 76.252747 51.989002
vn -0.038997 0.944635 0.096898
v 76.944702 71.965744 89.016998
vn 0.757998 0.771195 -0.119647
v 85.920700 111.453751 5.231000
vn -0.271509 0.509295 0.331051
v 60.148697 76.219742 18.811001
vn -0.703062 -0.513237 0.604703
v 66.337700 75.331741 25.253000
vn -1.060266 0.096340 -0.525417
v 51.652699 77.702744 5.334000
vn 0.779122 0.705479 -0.095591
v 101.280701 98.736748 27.475000
vn 0.925521 0.013796 -0.050663
v 106.426697 78.198746 24.339001
vn 1.094666 -1.536850 -0.948917
v 72.005699 98.046745 35.140003
vn -0.887196 0.155072 -0.093850
v 62.292698 70.386742 29.543001
vn -0.644122 0.112585 -0.068137
v 59.460701 63.373741 44.727005
vn 0.489828 0.628032 0.480379
v 79.096703 73.304741 69.420998
vn 0.512501 0.657103 0.502615
v 86.856697 72.635742 62.383003
vn -0.823575 1.270350 -0.342467
v 74.754700 72.616745 99.426003
vn -0.445507 0.687186 -0.185255
v 68.696701 67.965744 96.742004
vn -0.930175 0.205450 0.014972
v 56.349701 62.930744 91.595001
vn -0.490575 0.316092 0.409298
v 73.786697 79.465744 57.388004
vn 1.042007 0.306578 0.093597
v 90.183701 64.805740 63.565006
vn -2.188841 -0.150567 0.470691
v 66.406700 73.481743 43.332005
vn -0.924090 -0.103015 -0.405134
v 42.693699 55.073746 83.118004
vn -0.995153 -0.110937 -0.436289
v 45.793697 58.129745 75.270004
vn -0.301090 0.837772 0.519361
v 80.063698 78.363747 61.821003
vn -0.418169 1.163540 0.721315
v 74.998703 75.769745 63.069004
vn -0.150157 0.113476 -0.801101
v 59.141701 51.210743 71.788002
vn -0.422736 -0.039355 0.541683
v 58.085701 86.595741 25.219002
vn -1.250907 0.276038 0.307849
v 68.887695 86.565742 46.033005
vn -2.179148 0.260445 -0.083259
v 65.695702 83.843742 30.958000
vn -0.739007 0.393867 0.060708
v 64.996696 96.767746 27.875002
vn -1.236726 -0.018082 -0.368873
v 59.913700 88.599747 18.992001
vn -0.113213 0.302692 0.221082
v 67.539696 69.756744 67.482002
vn -1.272724 0.932299 -0.650368
v 56.391701 61.881744 73.815002
vn 0.220405 0.492013 0.196247
v 88.714699 64.795746 79.952003
vn 0.090617 0.225965 0.091765
v 92.933701 107.563744 24.587000
vn 0.190844 0.475893 0.193262
v 89.075699 101.635742 42.994003
vn -0.189539 1.827392 0.936264
v 67.944702 99.459747 31.560001
vn -0.538040 0.234513 -0.340545
v 53.043701 89.253746 4.645000
vn -0.435481 0.074205 0.257991
v 56.491699 105.768745 5.715000
vn -2.099009 0.357664 1.243511
v 56.751701 101.665741 7.334001
vn 1.969584 1.154665 -0.338363
v 100.302704 96.549744 14.319000
vn -0.218336 0.367569 0.165296
v 76.979698 96.929749 47.728004
vn -0.468285 0.405982 0.078047
v 70.142700 103.380745 24.352001
vn -0.094347 0.020601 0.595266
v 62.418701 105.174744 17.396002
vn -1.192459 -2.288492 0.495489
v 55.524696 71.440742 18.123001
vn -1.685434 0.775941 1.864609
v 55.257698 94.443741 15.199000
vn -0.583217 0.127718 0.373273
v 66.540695 91.297745 32.159000
vn -0.815294 0.436348 -0.354945
v 56.258698 104.480743 11.927000
vn -1.058932 0.110055 1.989933
v 54.418701 82.984741 16.896002
vn 0.119266 0.054853 0.324714
v 76.702698 114.643745 10.550000
vn 0.047934 0.105073 0.324567
v 64.442703 97.251747 17.991001
vn -0.351553 -0.755923 -0.091262
v 61.960701 66.095741 21.981001
vn -0.454101 -0.976427 -0.117884
v 55.046700 70.461746 12.451000
vn -0.943967 0.035870 -0.012862
v 63.955700 66.572746 10.345000
vn -0.699669 -1.604200 1.022944
v 71.717697 37.941742 85.403000
vn 0.360370 -0.123968 -0.043757
v 86.766701 47.721741 82.278000
vn 0.395649 -1.532071 0.011938
v 72.796700 58.378742 17.734001
vn 0.193266 -0.748383 0.005831
v 64.866699 56.381744 24.264000
vn 0.063730 -0.550197 0.412104
v 99.989700 70.128746 31.274002
vn 0.134826 -1.163993 0.871843
v 98.634705 62.251743 20.967001
vn 0.900411 -0.691121 -0.425526
v 105.381699 70.705742 21.513000
vn -0.358140 -0.245410 -0.169530
v 49.790699 80.143745 9.539001
vn -0.518660 -0.394493 0.423018
v 66.664696 56.731743 9.592000
vn -0.933629 -0.710118 0.761466
v 66.801697 48.693741 2.264000
vn -0.546504 -1.278727 0.405143
v 57.635696 47.079742 84.879005
vn 0.739652 -0.421151 0.032394
v 84.596703 44.899742 47.078003
vn -0.651304 -0.508245 0.047747
v 57.252701 48.375740 93.450005
vn 0.239934 -0.248621 -0.044350
v 87.243698 54.345741 18.197001
vn 0.548115 -0.567958 -0.101314
v 90.035698 52.998741 40.853004
vn 0.145996 -0.785324 0.806837
v 95.247696 60.479744 5.287000
vn -0.973280 -0.197382 1.198499
v 61.453697 52.316742 7.507000
vn -0.814701 -1.844011 1.206407
v 64.392700 48.554741 49.454002
vn -0.132404 -0.299686 0.196064
v 71.189697 44.325741 47.580006
vn -0.239535 -0.663357 0.409806
v 67.394699 37.103741 81.132004
vn -0.702617 -0.526822 0.330101
v 69.968697 42.174744 90.845001
vn 0.281033 1.261878 -0.269753
v 75.101700 113.867744 5.252000
vn 0.640955 -1.290662 -0.223647
v 84.467697 45.786743 68.826004
vn -0.306567 -0.191885 -0.108214
v 72.122696 36.288742 105.652000
vn -1.063244 -0.665502 -0.375309
v 73.502701 40.078743 95.022003
vn 0.581506 -1.554475 -0.131864
v 74.178696 39.876743 73.445000
vn -1.285922 -0.405431 -0.124942
v 73.899696 57.622742 8.835000
vn 0.007038 0.098378 0.799721
v 79.764702 58.894745 97.582001
vn 0.013595 0.190046 1.544897
v 70.968697 51.069740 98.622002
vn 0.487786 0.040656 0.463917
v 79.198700 42.213741 99.639000
vn -0.253867 -0.316878 0.266154
v 46.152699 49.387741 76.674004
vn -0.447095 -0.064242 0.085289
v 68.803696 48.098743 97.149002
vn -1.722039 -0.357642 0.175432
v 71.438698 40.588741 107.704002
vn 0.158748 -0.913487 -0.303750
v 73.886696 36.661743 90.386002
vn 0.043896 -0.252591 -0.083991
v 84.471703 43.587742 75.089005
vn 0.882455 -0.450720 0.364105
v 87.871704 55.595741 89.347000
vn 0.394035 -0.201257 0.162581
v 75.696701 36.478741 95.190002
vn -0.676818 -0.401238 1.213948
v 67.515701 63.111744 100.677002
vn 1.239616 -1.104056 0.332768
v 80.756699 45.111740 62.086006
vn 0.609369 0.269081 0.213243
v 93.065704 63.290745 57.241005
vn 1.180456 -0.053465 0.180583
v 93.917702 69.415741 53.485004
vn -0.554545 -0.424453 -0.147473
v 62.739700 48.572742 67.131004
vn -0.341921 -0.272344 0.006691
v 56.804699 71.288742 7.540000
vn 1.580396 -0.201032 -0.206711
v 88.973701 62.803741 23.198000
vn -0.194228 0.595763 -0.090628
v 79.747696 107.162750 28.629002
vn -0.262248 -0.101035 0.021490
v 75.449699 52.095741 10.817000
vn -0.074184 -0.752547 -0.135047
v 91.465698 64.880745 10.255000
vn -1.150732 -0.227881 -0.325112
v 63.584698 60.361744 20.252001
vn -1.713127 -1.270522 -0.350307
v 60.323700 60.447742 31.734001
vn -1.031995 -1.325897 -0.606708
v 69.977699 41.356743 98.225006
vn -0.243440 -0.408065 1.982153
v 71.538696 60.711742 100.677002
vn 0.337411 -0.209548 -0.164790
v 91.643700 58.805740 66.964005
vn 0.016983 -0.831432 -0.497119
v 77.907700 51.154743 36.388004
vn -0.724743 1.008023 0.057277
v 82.265701 109.806747 13.958000
vn -0.643431 0.894930 0.050851
v 72.513702 102.734741 15.024000
vn 0.492853 -0.283196 0.062173
v 94.403702 62.207745 48.174004
vn -0.473993 -1.325564 -0.479033
v 84.925697 49.076744 35.194004
vn -0.484466 -1.378711 -1.132046
v 71.153702 51.289742 39.114002
vn -0.364014 -0.202260 0.044104
v 75.318703 56.577744 30.290001
vn -0.477069 -0.260644 -0.220939
v 60.884697 43.305744 77.349998
vn -0.122522 0.819187 0.501280
v 86.896698 104.876747 37.165005
vn 0.000000 0.000000 -2.252754
v 57.075420 56.789154 2.240000
vn 0.000000 0.000000 -0.386645
v 57.529716 53.451321 2.240000
vn 0.000000 0.000000 -0.905324
v 66.702911 48.725880 2.240000
vn 0.000000 0.000000 -2.846204
v 98.519974 75.185066 2.240000
vn 0.000000 0.000000 -0.181848
v 95.642334 64.189445 2.240000
vn 0.000000 0.000000 -0.148199
v 98.750671 90.556168 2.240000
vn 0.000000 0.000000 -2.948666
v 54.346565 92.007729 2.240000
vn 0.000000 0.000000 -2.618751
v 55.836395 98.569855 2.240000
vn 0.000000 0.000000 -0.750482
v 63.145428 67.240562 2.240000
vn 0.000000 0.000000 -0.022712
v 59.739552 51.478203 2.240000
vn 0.000000 0.000000 -0.170401
v 58.954224 59.686714 2.240000
vn 0.000000 0.000000 -0.369467
v 58.881084 58.713600 2.240000
vn 0.000000 0.000000 -0.422996
v 65.145828 65.934769 2.240000
vn 0.000000 0.000000 -1.998153
v 98.574799 92.960152 2.240000
vn 0.000000 0.000000 -0.174446
v 53.886536 76.841812 2.240000
vn 0.000000 0.000000 -2.875823
v 66.902916 49.381035 2.240000
vn 0.000000 0.000000 -0.263593
v 66.784592 48.906273 2.240000
vn 0.000000 0.000000 -2.889952
v 66.992638 49.062054 2.240000
vn 0.000000 0.000000 -0.067939
v 65.643105 107.921921 2.240000
vn 0.000000 0.000000 -0.075697
v 89.996605 105.810349 2.240000
vn 0.000000 0.000000 -1.615840
v 94.826447 60.531517 2.240000
vn 0.000000 0.000000 -0.067724
v 79.374413 45.233475 2.240000
vn 0.000000 0.000000 -0.042109
v 80.127197 111.127357 2.240000
vn 0.000000 0.000000 -0.903138
v 81.919342 58.064930 2.240000
vn 0.000000 0.000000 -0.131325
v 84.025574 59.844101 2.240000
vn 1.489074 1.445051 -0.697319
v 86.762238 109.143250 2.240000
vn 0.434254 0.168804 -0.135024
v 97.804939 93.313637 2.240000
vn 2.250982 0.875002 -0.699903
v 96.940025 95.538666 2.240000
vn 1.218146 0.473515 -0.378756
v 95.830704 101.936745 6.671000
vn -0.951855 1.769956 -1.196612
v 60.912827 105.797020 2.240000
vn -0.281654 0.523733 -0.354077
v 63.929699 112.452744 9.685000
vn 0.702928 0.094182 -0.384690
v 105.750702 78.772743 12.146000
vn -0.407036 0.072132 -0.137905
v 52.883614 83.752380 2.240000
vn -0.958244 -0.896686 0.696040
v 71.762665 43.373569 2.240000
vn -1.476097 -1.381270 1.072194
v 67.230797 48.216553 2.240000
vn -0.765900 -0.857786 0.385827
v 56.211700 55.303741 3.742000
vn 0.169624 -0.881671 0.327330
v 73.579697 45.823742 7.898001
vn -0.405341 -0.389011 -0.184407
v 52.307312 78.487328 2.240000
vn 1.963385 -0.513833 -0.149926
v 97.455704 70.102745 5.721000
vn -0.084750 0.006370 0.046886
v 63.726700 60.684742 10.731000
vn 0.349171 1.572275 -0.847902
v 75.604088 112.131851 2.240000
vn -0.156856 1.304288 -0.987473
v 63.925034 106.815590 2.240000
vn -0.128480 1.068341 -0.808839
v 62.484756 106.642380 2.240000
vn 1.451495 -0.824980 -0.760711
v 100.373276 78.445824 2.240000
vn 0.252229 -0.298595 -0.252558
v 86.514702 59.137741 5.561000
vn 0.405527 -0.843769 0.503350
v 78.002274 44.574005 2.240000
vn 0.301119 -0.626532 0.373757
v 80.599701 50.424744 9.955000
vn 0.283887 -1.861850 -0.070883
v 91.397232 60.008644 2.240000
vn 0.120741 0.035907 -0.448894
v 66.669403 48.838554 2.240000
vn -0.213355 -0.059879 -2.614587
v 66.939476 49.250767 2.240000
# 190 vertices, 0 vertices normals

f 1//1 9//9 38//38
f 1//1 3//3 121//121
f 38//38 3//3 1//1
f 2//2 3//3 38//38
f 23//23 5//5 4//4
f 4//4 5//5 42//42
f 25//25 72//72 53//53
f 20//20 6//6 14//14
f 63//63 87//87 7//7
f 55//55 56//56 52//52
f 8//8 9//9 46//46
f 24//24 13//13 57//57
f 37//37 10//10 32//32
f 77//77 128//128 37//37
f 15//15 7//7 87//87
f 17//17 92//92 11//11
f 48//48 47//47 24//24
f 66//66 34//34 20//20
f 12//12 13//13 24//24
f 27//27 115//115 59//59
f 120//120 14//14 6//6
f 73//73 7//7 15//15
f 39//39 57//57 16//16
f 17//17 11//11 43//43
f 49//49 40//40 18//18
f 18//18 120//120 6//6
f 64//64 73//73 171//171
f 72//72 25//25 62//62
f 20//20 35//35 19//19
f 34//34 6//6 20//20
f 40//40 120//120 18//18
f 27//27 21//21 22//22
f 27//27 130//130 107//107
f 23//23 27//27 29//29
f 29//29 5//5 23//23
f 61//61 67//67 18//18
f 27//27 41//41 21//21
f 24//24 47//47 12//12
f 57//57 39//39 50//50
f 67//67 25//25 53//53
f 64//64 65//65 73//73
f 26//26 8//8 46//46
f 42//42 41//41 4//4
f 41//41 27//27 23//23
f 70//70 87//87 78//78
f 68//68 25//25 67//67
f 28//28 57//57 44//44
f 9//9 57//57 28//28
f 119//119 120//120 45//45
f 1//1 51//51 58//58
f 29//29 16//16 5//5
f 169//169 30//30 60//60
f 66//66 20//20 19//19
f 31//31 37//37 32//32
f 31//31 56//56 74//74
f 32//32 52//52 31//31
f 56//56 76//76 74//74
f 33//33 87//87 63//63
f 32//32 26//26 54//54
f 34//34 169//169 60//60
f 35//35 172//172 19//19
f 68//68 36//36 25//25
f 52//52 72//72 55//55
f 70//70 31//31 74//74
f 37//37 128//128 38//38
f 128//128 2//2 38//38
f 49//49 39//39 40//40
f 21//21 41//41 42//42
f 69//69 73//73 71//71
f 74//74 69//69 71//71
f 43//43 11//11 5//5
f 47//47 17//17 12//12
f 17//17 43//43 12//12
f 44//44 49//49 18//18
f 67//67 53//53 44//44
f 57//57 9//9 1//1
f 28//28 44//44 53//53
f 59//59 39//39 29//29
f 59//59 131//131 45//45
f 45//45 40//40 59//59
f 46//46 28//28 26//26
f 13//13 16//16 57//57
f 1//1 24//24 57//57
f 110//110 47//47 48//48
f 49//49 50//50 39//39
f 48//48 58//58 51//51
f 107//107 115//115 27//27
f 60//60 61//61 34//34
f 72//72 52//52 54//54
f 53//53 26//26 28//28
f 29//29 39//39 16//16
f 26//26 72//72 54//54
f 68//68 134//134 76//76
f 55//55 76//76 56//56
f 15//15 74//74 71//71
f 31//31 52//52 56//56
f 45//45 120//120 40//40
f 38//38 9//9 8//8
f 8//8 26//26 32//32
f 8//8 32//32 10//10
f 37//37 38//38 10//10
f 43//43 5//5 13//13
f 16//16 13//13 5//5
f 57//57 50//50 44//44
f 1//1 58//58 24//24
f 54//54 52//52 32//32
f 46//46 9//9 28//28
f 40//40 39//39 59//59
f 44//44 18//18 67//67
f 117//117 21//21 42//42
f 49//49 44//44 50//50
f 58//58 48//48 24//24
f 121//121 51//51 1//1
f 61//61 18//18 6//6
f 22//22 130//130 27//27
f 27//27 59//59 29//29
f 12//12 43//43 13//13
f 60//60 140//140 61//61
f 62//62 36//36 68//68
f 65//65 63//63 7//7
f 64//64 63//63 65//65
f 11//11 42//42 5//5
f 15//15 87//87 70//70
f 97//97 3//3 2//2
f 34//34 66//66 169//169
f 124//124 68//68 67//67
f 26//26 53//53 72//72
f 36//36 62//62 25//25
f 68//68 76//76 55//55
f 68//68 55//55 62//62
f 74//74 76//76 69//69
f 78//78 37//37 70//70
f 71//71 73//73 15//15
f 55//55 72//72 62//62
f 65//65 7//7 73//73
f 34//34 61//61 6//6
f 70//70 74//74 15//15
f 117//117 22//22 21//21
f 8//8 10//10 38//38
f 11//11 117//117 42//42
f 70//70 37//37 31//31
f 75//75 69//69 76//76
f 75//75 76//76 134//134
f 126//126 95//95 179//179
f 177//177 106//106 88//88
f 79//79 77//77 78//78
f 180//180 127//127 79//79
f 103//103 116//116 109//109
f 114//114 116//116 113//113
f 100//100 99//99 80//80
f 121//121 99//99 139//139
f 89//89 88//88 96//96
f 133//133 124//124 60//60
f 81//81 114//114 102//102
f 83//83 82//82 138//138
f 132//132 125//125 187//187
f 129//129 100//100 104//104
f 79//79 127//127 77//77
f 180//180 96//96 88//88
f 171//171 73//73 69//69
f 35//35 20//20 14//14
f 88//88 82//82 83//83
f 180//180 88//88 127//127
f 77//77 37//37 78//78
f 84//84 123//123 85//85
f 122//122 79//79 78//78
f 187//187 93//93 136//136
f 106//106 82//82 88//88
f 110//110 48//48 51//51
f 185//185 123//123 93//93
f 86//86 85//85 179//179
f 122//122 78//78 87//87
f 88//88 89//89 177//177
f 125//125 177//177 187//187
f 177//177 125//125 106//106
f 118//118 105//105 98//98
f 121//121 105//105 99//99
f 110//110 139//139 90//90
f 135//135 131//131 91//91
f 81//81 131//131 115//115
f 14//14 135//135 84//84
f 90//90 92//92 17//17
f 136//136 93//93 94//94
f 93//93 187//187 185//185
f 69//69 75//75 171//171
f 136//136 94//94 91//91
f 126//126 185//185 95//95
f 123//123 185//185 126//126
f 172//172 86//86 179//179
f 96//96 180//180 176//176
f 140//140 124//124 67//67
f 3//3 97//97 98//98
f 108//108 112//112 109//109
f 99//99 100//100 92//92
f 135//135 123//123 84//84
f 104//104 100//100 113//113
f 75//75 30//30 101//101
f 118//118 102//102 105//105
f 105//105 121//121 98//98
f 84//84 85//85 86//86
f 116//116 103//103 104//104
f 115//115 109//109 116//116
f 114//114 80//80 105//105
f 123//123 135//135 94//94
f 172//172 35//35 86//86
f 137//137 2//2 138//138
f 83//83 128//128 127//127
f 125//125 82//82 106//106
f 60//60 30//30 133//133
f 4//4 41//41 23//23
f 115//115 131//131 59//59
f 92//92 108//108 11//11
f 107//107 108//108 109//109
f 108//108 92//92 111//111
f 107//107 109//109 115//115
f 107//107 130//130 108//108
f 99//99 92//92 90//90
f 90//90 17//17 110//110
f 35//35 84//84 86//86
f 103//103 109//109 112//112
f 111//111 129//129 103//103
f 111//111 103//103 112//112
f 100//100 80//80 113//113
f 116//116 104//104 113//113
f 116//116 114//114 81//81
f 113//113 80//80 114//114
f 129//129 111//111 100//100
f 111//111 92//92 100//100
f 99//99 90//90 139//139
f 105//105 102//102 114//114
f 105//105 80//80 99//99
f 98//98 97//97 137//137
f 136//136 132//132 187//187
f 133//133 30//30 75//75
f 81//81 115//115 116//116
f 11//11 108//108 117//117
f 110//110 51//51 139//139
f 110//110 17//17 47//47
f 102//102 131//131 81//81
f 91//91 131//131 118//118
f 45//45 131//131 119//119
f 131//131 135//135 119//119
f 135//135 120//120 119//119
f 98//98 121//121 3//3
f 87//87 33//33 122//122
f 94//94 93//93 123//123
f 68//68 124//124 134//134
f 138//138 125//125 132//132
f 117//117 130//130 22//22
f 85//85 123//123 126//126
f 127//127 128//128 77//77
f 138//138 2//2 83//83
f 2//2 128//128 83//83
f 103//103 129//129 104//104
f 108//108 130//130 117//117
f 102//102 118//118 131//131
f 2//2 137//137 97//97
f 91//91 118//118 98//98
f 132//132 91//91 98//98
f 14//14 84//84 35//35
f 179//179 85//85 126//126
f 124//124 133//133 134//134
f 135//135 91//91 94//94
f 137//137 138//138 132//132
f 91//91 132//132 136//136
f 137//137 132//132 98//98
f 138//138 82//82 125//125
f 88//88 83//83 127//127
f 134//134 133//133 75//75
f 51//51 121//121 139//139
f 67//67 61//61 140//140
f 140//140 60//60 124//124
f 120//120 135//135 14//14
f 111//111 112//112 108//108
f 155//155 178//178 173//173
f 141//141 152//152 142//142
f 189//189 153//153 159//159
f 189//189 150//150 153//153
f 143//143 150//150 189//189
f 167//167 145//145 168//168
f 144//144 145//145 167//167
f 186//186 174//174 181//181
f 146//146 144//144 154//154
f 184//184 144//144 146//146
f 148//148 155//155 147//147
f 170//170 155//155 148//148
f 183//183 155//155 170//170
f 149//149 155//155 183//183
f 150//150 152//152 151//151
f 150//150 142//142 152//152
f 164//164 162//162 163//163
f 153//153 149//149 182//182
f 160//160 165//165 166//166
f 188//188 165//165 160//160
f 151//151 153//153 150//150
f 167//167 154//154 144//144
f 173//173 147//147 155//155
f 182//182 159//159 153//153
f 159//159 157//157 189//189
f 159//159 156//156 157//157
f 159//159 190//190 156//156
f 159//159 158//158 190//190
f 159//159 175//175 158//158
f 159//159 174//174 175//175
f 159//159 181//181 174//174
f 160//160 161//161 188//188
f 160//160 145//145 161//161
f 160//160 168//168 145//145
f 181//181 162//162 186//186
f 181//181 163//163 162//162
f 163//163 165//165 164//164
f 163//163 166//166 165//165
f 183//183 182//182 149//149
f 160//160 166//166 30//30
f 160//160 30//30 169//169
f 167//167 168//168 169//169
f 167//167 169//169 66//66
f 154//154 167//167 66//66
f 154//154 66//66 19//19
f 173//173 178//178 33//33
f 173//173 33//33 63//63
f 183//183 170//170 64//64
f 183//183 64//64 171//171
f 181//181 159//159 101//101
f 148//148 147//147 63//63
f 148//148 63//63 64//64
f 146//146 154//154 19//19
f 146//146 19//19 172//172
f 184//184 146//146 172//172
f 168//168 160//160 169//169
f 147//147 173//173 63//63
f 149//149 153//153 79//79
f 149//149 79//79 122//122
f 175//175 174//174 177//177
f 175//175 177//177 89//89
f 142//142 150//150 96//96
f 142//142 96//96 176//176
f 174//174 186//186 177//177
f 165//165 188//188 185//185
f 178//178 155//155 122//122
f 178//178 122//122 33//33
f 153//153 151//151 79//79
f 145//145 144//144 179//179
f 151//151 152//152 180//180
f 151//151 180//180 79//79
f 162//162 164//164 187//187
f 152//152 141//141 176//176
f 152//152 176//176 180//180
f 150//150 143//143 89//89
f 150//150 89//89 96//96
f 163//163 181//181 101//101
f 163//163 101//101 30//30
f 159//159 182//182 75//75
f 159//159 75//75 101//101
f 161//161 145//145 179//179
f 161//161 179//179 95//95
f 182//182 183//183 171//171
f 182//182 171//171 75//75
f 144//144 184//184 172//172
f 144//144 172//172 179//179
f 164//164 165//165 185//185
f 164//164 185//185 187//187
f 155//155 149//149 122//122
f 141//141 142//142 176//176
f 186//186 162//162 187//187
f 186//186 187//187 177//177
f 188//188 161//161 95//95
f 188//188 95//95 185//185
f 143//143 189//189 89//89
f 156//156 190//190 89//89
f 189//189 157//157 89//89
f 157//157 156//156 89//89
f 170//170 148//148 64//64
f 166//166 163//163 30//30
f 158//158 175//175 89//89
f 190//190 158//158 89//89
# 376 faces, 0 coords texture

# End of File
