####
#
# OBJ File Generated by Meshlab
#
####
# Object pokeVaseA01.obj
#
# Vertices: 202
# Faces: 400
#
####
vn 0.328269 0.351309 0.125171
v 1.011750 23.371500 90.683296
vn -0.306395 0.327900 0.116831
v -0.955580 38.356899 48.772202
vn -1.441044 1.542186 0.549480
v -9.676550 23.361300 67.987999
vn -0.480534 0.016292 0.125171
v -17.241600 15.810700 90.683296
vn -0.327900 -0.306395 0.116831
v -38.356899 -0.955580 48.772202
vn -0.306395 -0.327900 0.116831
v -0.955580 -38.356899 48.772202
vn 0.327900 -0.306395 0.116831
v 38.356899 -0.955580 48.772202
vn 1.542186 1.441044 0.549480
v 23.361300 9.676550 67.987999
vn -0.033614 0.385340 0.013337
v 15.361500 16.336000 95.912399
vn -0.205500 2.355803 0.081535
v 6.140920 14.825500 116.316002
vn 0.205500 2.355802 0.081535
v -6.140910 14.825500 116.316002
vn -0.249588 0.297296 0.013384
v -20.189899 0.691150 137.334000
vn -0.385340 0.033614 0.013337
v -16.336000 -15.361500 95.912399
vn -1.520488 -1.811122 0.081534
v -14.825500 -6.140920 116.316002
vn -1.811123 -1.520487 0.081534
v -6.140910 -14.825500 116.316002
vn -0.033614 -0.385340 0.013337
v 15.361500 -16.336000 95.912399
vn 2.355802 -0.205500 0.081535
v 14.825500 6.140910 116.316002
vn 0.385340 -0.033614 0.013337
v 16.336000 15.361500 95.912399
vn -0.168171 1.906663 -0.174553
v 16.298201 39.347401 23.836300
vn -0.454672 0.380966 -0.054096
v -24.389400 26.636000 2.323370
vn -0.399070 0.476279 -0.056667
v -29.402700 27.072500 44.358601
vn -1.906663 0.168171 -0.174553
v -39.347401 -16.298201 23.836300
vn -0.054594 -0.618963 -0.056665
v 1.647680 -39.933998 44.358601
vn 0.590885 0.052117 -0.054095
v 36.080502 -1.588620 2.323370
vn 0.618963 0.054594 -0.056665
v 39.933998 -1.647680 44.358601
vn 0.399070 -0.476279 -0.056667
v 29.402700 -27.072500 44.358601
vn 0.380966 -0.454672 -0.054096
v 26.636000 -24.389400 2.323370
vn 1.229295 1.467128 -0.174557
v 39.347401 16.298201 23.836300
vn 0.000000 0.000000 -2.159840
v 34.642101 2.620670 0.000000
vn 0.711593 1.717917 -0.747361
v 22.642599 26.348801 0.000000
vn 0.749779 1.810139 -0.787604
v 2.620670 34.642101 0.000000
vn 0.029534 0.071298 0.042237
v 9.676550 23.361300 67.987999
vn 0.696611 1.681807 0.996294
v 0.955580 38.356899 48.772202
vn 0.368171 0.888843 0.526543
v 2.620670 38.914501 46.666698
vn -0.038216 0.092262 -0.040137
v -2.620670 34.642101 0.000000
vn 0.000000 0.000000 -0.785398
v 0.000000 0.000000 0.000000
vn 0.000000 0.000000 -1.178100
v 0.000000 32.890999 0.000000
vn 0.000000 0.000000 -0.111424
v 23.257500 23.257500 0.000000
vn -0.768188 1.854673 0.495384
v -1.647680 39.933998 44.358601
vn -0.768252 1.854648 0.495390
v -27.072500 29.402700 44.358601
vn -0.033229 0.080218 0.021427
v -16.298201 39.347401 23.836300
vn -0.328471 0.792959 0.469755
v -25.663601 29.369801 46.666698
vn -0.882887 0.365708 -0.384090
v -26.636000 24.389400 2.323370
vn -0.092262 0.038217 -0.040137
v -36.080502 1.588620 2.323370
vn -0.092262 0.038216 -0.040144
v -26.348801 22.642599 0.000000
vn 0.000000 0.000000 -0.111424
v -22.642599 26.348801 0.000000
vn -0.080220 0.033226 0.021427
v -39.347401 16.298201 23.836300
vn -0.071298 0.029534 0.042237
v -23.361300 9.676550 67.987999
vn -1.681807 0.696611 0.996294
v -38.356899 0.955580 48.772202
vn -0.888843 0.368171 0.526543
v -29.369801 25.663601 46.666698
vn -1.717877 -0.711576 -0.747454
v -34.642101 -2.620670 0.000000
vn 0.000000 0.000000 -1.178095
v -23.257500 23.257500 0.000000
vn 0.000000 0.000000 -2.048417
v -34.642101 2.620670 0.000000
vn -0.971585 -0.402444 0.259524
v -38.914501 -2.620670 46.666698
vn -1.681787 -0.696654 0.996303
v -27.798100 -26.446699 48.772202
vn -0.347322 -0.838499 -0.364815
v -16.298201 -39.347401 23.836300
vn -0.038216 -0.092262 -0.040144
v -22.642599 -26.348801 0.000000
vn -0.768252 -1.854648 0.495390
v -27.072500 -29.402700 44.358601
vn -0.402444 -0.971585 0.259524
v -2.620670 -38.914501 46.666698
vn -0.696654 -1.681787 0.996303
v -26.446699 -27.798100 48.772202
vn 0.384090 -0.927264 -0.403435
v 24.389400 -26.636000 2.323370
vn 0.711576 -1.717877 -0.747454
v 2.620670 -34.642101 0.000000
vn 0.768252 -1.854648 0.495390
v 27.072500 -29.402700 44.358601
vn 0.033229 -0.080218 0.021427
v 16.298201 -39.347401 23.836300
vn 0.696611 -1.681807 0.996294
v 0.955580 -38.356899 48.772202
vn 0.696654 -1.681787 0.996303
v 26.446699 -27.798100 48.772202
vn 0.029534 -0.071298 0.042237
v 9.676550 -23.361300 67.987999
vn 0.368171 -0.888843 0.526543
v 2.620670 -38.914501 46.666698
vn 0.368171 -0.888843 0.526543
v 25.663601 -29.369801 46.666698
vn 1.717917 -0.711593 -0.747361
v 26.348801 -22.642599 0.000000
vn 1.810139 -0.749779 -0.787604
v 34.642101 -2.620670 0.000000
vn 0.000000 0.000000 -2.048420
v 22.642599 -26.348801 0.000000
vn 0.080218 -0.033229 0.021427
v 39.347401 -16.298201 23.836300
vn 0.883052 -0.365752 0.235863
v 38.914501 -2.620670 46.666698
vn 0.792959 -0.328471 0.469755
v 29.369801 -25.663601 46.666698
vn 0.071298 -0.029534 0.042237
v 23.361300 -9.676550 67.987999
vn 1.810188 0.749800 -0.787492
v 26.348801 22.642599 0.000000
vn 0.000000 0.000000 -0.981752
v 32.890999 0.000000 0.000000
vn 0.000000 0.000000 -0.111424
v 23.257500 -23.257500 0.000000
vn 0.883052 0.365752 0.235863
v 38.914501 2.620670 46.666698
vn 1.681807 0.696611 0.996294
v 38.356899 0.955580 48.772202
vn 0.361033 0.871614 0.137460
v 15.810700 17.241600 90.683296
vn 0.809233 1.953644 0.510383
v 2.620670 22.287201 93.333298
vn -0.739790 1.786011 0.466585
v -2.620670 22.287201 93.333298
vn -0.828645 2.000510 0.315504
v -13.906300 17.612499 93.333298
vn -0.649639 0.269089 0.169698
v -14.825500 6.140910 116.316002
vn -1.085908 0.449798 0.283659
v -22.413500 0.689120 95.912399
vn -1.128911 0.467608 0.178020
v -23.371500 1.011750 90.683296
vn -2.000523 0.828651 0.315446
v -22.287201 2.620670 93.333298
vn -0.614311 -0.254455 0.096872
v -23.361300 -9.676550 67.987999
vn -1.128912 -0.467609 0.178020
v -17.241600 -15.810700 90.683296
vn -0.871611 -0.361032 0.137440
v -23.371500 -1.011750 90.683296
vn -0.171393 -0.070994 0.027031
v -22.287201 -2.620670 93.333298
vn -2.000510 -0.828645 0.315504
v -17.612499 -13.906300 93.333298
vn -0.069438 -0.167638 0.043792
v -0.689120 -22.413500 95.912399
vn -0.254455 -0.614311 0.096872
v -9.676550 -23.361300 67.987999
vn -0.828651 -2.000523 0.315446
v -2.620670 -22.287201 93.333298
vn 0.467609 -1.128912 0.178020
v 15.810700 -17.241600 90.683296
vn 0.757648 -1.829133 0.288427
v 2.620670 -22.287201 93.333298
vn 0.649638 -0.269085 0.169698
v 14.825500 -6.140920 116.316002
vn 1.829122 -0.757644 0.288467
v 17.612499 -13.906300 93.333298
vn 2.000523 -0.828651 0.315446
v 22.287201 -2.620670 93.333298
vn 1.128911 0.467608 0.178020
v 23.371500 1.011750 90.683296
vn 0.171393 0.070994 0.027031
v 22.287201 2.620670 93.333298
vn 2.000510 0.828645 0.315504
v 17.612499 13.906300 93.333298
vn 0.000000 0.000000 0.785398
v 0.000000 0.000000 140.000000
vn 0.000000 0.000000 1.945717
v 12.136800 15.843000 140.000000
vn 0.000000 0.000000 2.159839
v 2.620670 19.784700 140.000000
vn -0.473325 1.142702 -0.168922
v -0.691150 20.189899 137.334000
vn 0.000000 0.000000 0.981752
v 0.000000 18.033600 140.000000
vn 0.000000 0.000000 1.945712
v -2.620670 19.784700 140.000000
vn 0.000000 0.000000 2.159845
v -12.136800 15.843000 140.000000
vn 0.000000 0.000000 1.178095
v -12.751700 12.751700 140.000000
vn -0.198113 -0.082061 -0.029284
v -19.784700 -2.620670 140.000000
vn 0.000000 0.000000 1.178099
v -18.033600 0.000000 140.000000
vn 0.000000 0.000000 0.214129
v -12.751700 -12.751700 140.000000
vn -0.473325 -1.142702 -0.168922
v -0.691150 -20.189899 137.334000
vn 0.000000 0.000000 2.159839
v -2.620670 -19.784700 140.000000
vn 0.244533 -0.590351 -0.087270
v 6.140920 -14.825500 116.316002
vn 0.473326 -1.142702 -0.168922
v 13.787700 -14.765100 137.334000
vn 0.000000 0.000000 1.178095
v 12.751700 -12.751700 140.000000
vn 2.009188 -0.832231 -0.296953
v 19.784700 -2.620670 140.000000
vn 1.142702 0.473325 -0.168922
v 20.189899 0.691150 137.334000
vn 0.198113 0.082061 -0.029281
v 14.765100 13.787700 137.334000
vn 0.000000 0.000000 1.178095
v 12.751700 12.751700 140.000000
vn 0.000000 0.000000 2.159845
v 15.843000 12.136800 140.000000
vn 1.052202 1.052202 -0.136416
v 24.389400 26.636000 2.323370
vn 0.030252 0.030252 0.015297
v 26.446699 27.798100 48.772202
vn 0.000000 1.565630 -0.143526
v 1.588620 36.080502 2.323370
vn 0.000000 1.488038 -0.136413
v 1.647680 39.933998 44.358601
vn 0.000000 1.477905 0.528428
v -1.011750 23.371500 90.683296
vn -1.046718 1.046718 0.529277
v -26.446699 27.798100 48.772202
vn -0.030252 0.030252 0.015297
v -27.798100 26.446699 48.772202
vn -1.107069 -1.107069 -0.143530
v -26.636000 -24.389400 2.323370
vn -1.052202 -1.052202 -0.136416
v -24.389400 -26.636000 2.323370
vn 0.000000 -1.488038 -0.136413
v 1.588620 -36.080502 2.323370
vn 1.488038 0.000000 -0.136413
v 36.080502 1.588620 2.323370
vn 1.562844 0.000000 -0.143271
v 39.933998 1.647680 44.358601
vn 0.000000 1.568587 0.084205
v 0.689120 22.413500 95.912399
vn 0.000000 0.033266 0.001786
v -0.689120 22.413500 95.912399
vn -1.109159 1.109159 0.084207
v -15.361500 16.336000 95.912399
vn -0.023451 0.023451 0.001780
v -13.787700 14.765100 137.334000
vn -0.023520 0.023520 0.001786
v -16.336000 15.361500 95.912399
vn -1.109089 1.109089 0.084201
v -14.765100 13.787700 137.334000
vn -1.085639 -1.085639 0.082421
v -14.765100 -13.787700 137.334000
vn 0.000000 -1.535323 0.082419
v 0.689120 -22.413500 95.912399
vn 0.033266 0.000000 0.001786
v 22.413500 0.689120 95.912399
vn 0.494649 0.494649 -0.960271
v 26.636000 24.389400 2.323370
vn 1.254072 1.254072 0.783381
v 29.402700 27.072500 44.358601
vn 0.432640 0.432640 0.270257
v 29.369801 25.663601 46.666698
vn 0.834105 0.729366 0.351364
v 27.798100 26.446699 48.772202
vn 0.290629 0.389909 0.182963
v 27.072500 29.402700 44.358601
vn 1.180331 1.583532 0.743064
v 25.663601 29.369801 46.666698
vn 0.368745 0.551858 -0.505454
v -1.588620 36.080502 2.323370
vn 0.000000 0.611840 0.270252
v -2.620670 38.914501 46.666698
vn -0.699518 0.000000 -0.960292
v -36.080502 -1.588620 2.323370
vn -0.500560 0.334469 -0.458470
v -32.890999 0.000000 0.000000
vn -1.773532 0.000000 0.783377
v -39.933998 -1.647680 44.358601
vn -0.488366 0.000000 0.215714
v -39.933998 1.647680 44.358601
vn -1.954345 0.285118 0.743050
v -38.914501 2.620670 46.666698
vn -0.240664 -1.209896 -0.939397
v -26.348801 -22.642599 0.000000
vn -0.590475 -0.117453 -0.458461
v -23.257500 -23.257500 0.000000
vn -0.907927 -1.038307 0.437384
v -25.663601 -29.369801 46.666698
vn -1.583532 -1.180331 0.743064
v -29.369801 -25.663601 46.666698
vn -0.389909 -0.290629 0.182963
v -29.402700 -27.072500 44.358601
vn 0.685365 -1.025706 -0.939457
v -2.620670 -34.642101 0.000000
vn 0.368745 -0.551858 -0.505454
v -1.588620 -36.080502 2.323370
vn 0.000000 -0.450703 -0.618721
v 0.000000 -32.890999 0.000000
vn 0.000000 -0.488366 0.215714
v -1.647680 -39.933998 44.358601
vn 0.834105 -0.729366 0.351364
v 27.798100 -26.446699 48.772202
vn 0.834671 1.686520 0.363781
v 13.906300 17.612499 93.333298
vn 1.050366 1.050366 0.272138
v 17.241600 15.810700 90.683296
vn -1.686520 0.834671 0.363781
v -17.612499 13.906300 93.333298
vn -1.050366 1.050366 0.272138
v -15.810700 17.241600 90.683296
vn -0.575709 -0.194501 0.117474
v -22.413500 -0.689120 95.912399
vn -0.834671 -1.686520 0.363781
v -13.906300 -17.612499 93.333298
vn -0.877164 -0.877164 0.227263
v -15.810700 -17.241600 90.683296
vn -1.134709 -1.134709 0.293990
v -15.361500 -16.336000 95.912399
vn 0.000000 -1.485458 0.272144
v -1.011750 -23.371500 90.683296
vn 0.000000 -0.244961 0.044878
v 1.011750 -23.371500 90.683296
vn 0.834671 -1.686520 0.363781
v 13.906300 -17.612499 93.333298
vn 1.134652 -1.134767 0.293964
v 16.336100 -15.361500 95.912399
vn 0.173203 -0.173221 0.044873
v 17.241600 -15.810700 90.683296
vn 0.563732 -0.190454 0.115029
v 23.371500 -1.011750 90.683296
vn 1.240497 0.000000 0.227266
v 22.413500 -0.689120 95.912399
vn 0.754257 0.754257 0.862727
v 13.787700 14.765100 137.334000
vn -0.471769 0.706041 0.448751
v 0.691160 20.189899 137.334000
vn -0.196945 0.990104 0.533487
v -15.843000 12.136800 140.000000
vn -0.706041 0.471769 0.448751
v -20.189899 -0.691160 137.334000
vn -0.839376 -0.560861 0.533498
v -19.784700 2.620670 140.000000
vn -0.990104 -0.196945 0.533487
v -12.136800 -15.843000 140.000000
vn -0.832839 -0.165663 0.448749
v -13.787700 -14.765100 137.334000
vn -0.196945 -0.990104 0.533487
v -15.843000 -12.136800 140.000000
vn -0.560862 -0.839378 0.533498
v 2.620670 -19.784700 140.000000
vn -0.471769 -0.706041 0.448751
v 0.691160 -20.189899 137.334000
vn 0.510528 -0.764048 0.485621
v 0.000000 -18.033600 140.000000
vn 0.196945 -0.990104 0.533487
v 15.843000 -12.136800 140.000000
vn 0.990104 -0.196945 0.533487
v 12.136800 -15.843000 140.000000
vn 0.754257 -0.754257 0.862727
v 14.765100 -13.787700 137.334000
vn 0.839376 -0.560861 0.533498
v 19.784700 2.620670 140.000000
vn 0.309301 0.000000 0.250167
v 18.033600 0.000000 140.000000
vn 1.066665 0.000000 0.862734
v 20.189899 -0.691160 137.334000
# 202 vertices, 0 vertices normals

f 32//32 33//33 1//1
f 82//82 128//128 32//32
f 3//3 132//132 174//174
f 131//131 2//2 3//3
f 48//48 49//49 88//88
f 4//4 133//133 48//48
f 90//90 55//55 91//91
f 92//92 5//5 90//90
f 96//96 6//6 179//179
f 177//177 60//60 96//96
f 67//67 66//66 98//98
f 180//180 65//65 67//67
f 76//76 7//7 184//184
f 183//183 170//170 76//76
f 8//8 151//151 172//172
f 103//103 81//81 8//8
f 10//10 139//139 187//187
f 186//186 9//9 10//10
f 11//11 141//141 142//142
f 109//109 140//140 11//11
f 86//86 87//87 12//12
f 144//144 143//143 86//86
f 14//14 13//13 145//145
f 189//189 175//175 14//14
f 15//15 95//95 117//117
f 192//192 178//178 15//15
f 119//119 16//16 120//120
f 195//195 146//146 119//119
f 100//100 185//185 202//202
f 199//199 182//182 100//100
f 17//17 18//18 124//124
f 123//123 147//147 17//17
f 19//19 129//129 130//130
f 152//152 127//127 19//19
f 41//41 20//20 40//40
f 39//39 154//154 41//41
f 47//47 44//44 159//159
f 21//21 43//43 47//47
f 22//22 134//134 165//165
f 158//158 156//156 22//22
f 56//56 167//167 169//169
f 58//58 135//135 56//56
f 64//64 61//61 63//63
f 23//23 136//136 64//64
f 73//73 24//24 25//25
f 26//26 27//27 73//73
f 28//28 148//148 149//149
f 138//138 137//137 28//28
f 36//36 38//38 78//78
f 38//38 77//77 78//78
f 77//77 29//29 78//78
f 19//19 127//127 129//129
f 127//127 30//30 129//129
f 30//30 31//31 129//129
f 152//152 19//19 153//153
f 130//130 34//34 19//19
f 153//153 19//19 34//34
f 128//128 153//153 32//32
f 33//33 32//32 34//34
f 153//153 34//34 32//32
f 41//41 154//154 20//20
f 154//154 35//35 20//20
f 35//35 46//46 20//20
f 36//36 37//37 38//38
f 37//37 31//31 38//38
f 31//31 30//30 38//38
f 39//39 41//41 155//155
f 40//40 42//42 41//41
f 155//155 41//41 42//42
f 2//2 155//155 3//3
f 132//132 3//3 42//42
f 155//155 42//42 3//3
f 47//47 43//43 44//44
f 43//43 45//45 44//44
f 45//45 53//53 44//44
f 36//36 52//52 37//37
f 52//52 46//46 37//37
f 46//46 35//35 37//37
f 21//21 47//47 50//50
f 159//159 160//160 47//47
f 50//50 47//47 160//160
f 133//133 50//50 48//48
f 49//49 48//48 160//160
f 50//50 160//160 48//48
f 22//22 156//156 134//134
f 156//156 51//51 134//134
f 51//51 161//161 134//134
f 36//36 157//157 52//52
f 157//157 53//53 52//52
f 53//53 45//45 52//52
f 158//158 22//22 54//54
f 165//165 164//164 22//22
f 54//54 22//22 164//164
f 5//5 54//54 90//90
f 55//55 90//90 164//164
f 54//54 164//164 90//90
f 56//56 135//135 167//167
f 135//135 57//57 167//167
f 57//57 166//166 167//167
f 36//36 162//162 157//157
f 162//162 161//161 157//157
f 161//161 51//51 157//157
f 58//58 56//56 163//163
f 169//169 59//59 56//56
f 163//163 56//56 59//59
f 60//60 163//163 96//96
f 6//6 96//96 59//59
f 163//163 59//59 96//96
f 64//64 136//136 61//61
f 136//136 62//62 61//61
f 62//62 72//72 61//61
f 36//36 168//168 162//162
f 168//168 166//166 162//162
f 166//166 57//57 162//162
f 23//23 64//64 68//68
f 63//63 69//69 64//64
f 68//68 64//64 69//69
f 65//65 68//68 67//67
f 66//66 67//67 69//69
f 68//68 69//69 67//67
f 73//73 27//27 24//24
f 27//27 70//70 24//24
f 70//70 71//71 24//24
f 36//36 79//79 168//168
f 79//79 72//72 168//168
f 72//72 62//62 168//168
f 26//26 73//73 75//75
f 25//25 74//74 73//73
f 75//75 73//73 74//74
f 170//170 75//75 76//76
f 7//7 76//76 74//74
f 75//75 74//74 76//76
f 28//28 137//137 148//148
f 137//137 29//29 148//148
f 29//29 77//77 148//148
f 36//36 78//78 79//79
f 78//78 71//71 79//79
f 71//71 70//70 79//79
f 138//138 28//28 80//80
f 149//149 150//150 28//28
f 80//80 28//28 150//150
f 81//81 80//80 8//8
f 151//151 8//8 150//150
f 80//80 150//150 8//8
f 32//32 1//1 82//82
f 82//82 1//1 171//171
f 171//171 1//1 83//83
f 10//10 9//9 139//139
f 9//9 171//171 139//139
f 171//171 83//83 139//139
f 11//11 140//140 141//141
f 140//140 84//84 141//141
f 84//84 85//85 141//141
f 3//3 174//174 131//131
f 131//131 174//174 84//84
f 84//84 174//174 85//85
f 86//86 143//143 87//87
f 143//143 173//173 87//87
f 173//173 89//89 87//87
f 48//48 88//88 4//4
f 4//4 88//88 173//173
f 173//173 88//88 89//89
f 14//14 175//175 13//13
f 175//175 93//93 13//13
f 93//93 94//94 13//13
f 90//90 91//91 92//92
f 92//92 91//91 93//93
f 93//93 91//91 94//94
f 15//15 178//178 95//95
f 178//178 176//176 95//95
f 176//176 97//97 95//95
f 96//96 179//179 177//177
f 177//177 179//179 176//176
f 176//176 179//179 97//97
f 119//119 146//146 16//16
f 146//146 99//99 16//16
f 99//99 181//181 16//16
f 67//67 98//98 180//180
f 180//180 98//98 99//99
f 99//99 98//98 181//181
f 100//100 182//182 185//185
f 182//182 101//101 185//185
f 101//101 102//102 185//185
f 76//76 184//184 183//183
f 183//183 184//184 101//101
f 101//101 184//184 102//102
f 17//17 147//147 18//18
f 147//147 104//104 18//18
f 104//104 105//105 18//18
f 8//8 172//172 103//103
f 103//103 172//172 104//104
f 104//104 172//172 105//105
f 10//10 187//187 186//186
f 186//186 187//187 107//107
f 107//107 187//187 108//108
f 106//106 125//125 110//110
f 125//125 107//107 110//110
f 107//107 108//108 110//110
f 11//11 142//142 109//109
f 109//109 142//142 111//111
f 111//111 142//142 112//112
f 106//106 110//110 113//113
f 110//110 111//111 113//113
f 111//111 112//112 113//113
f 86//86 12//12 144//144
f 144//144 12//12 188//188
f 188//188 12//12 190//190
f 106//106 113//113 115//115
f 113//113 188//188 115//115
f 188//188 190//190 115//115
f 14//14 145//145 189//189
f 189//189 145//145 114//114
f 114//114 145//145 193//193
f 106//106 115//115 116//116
f 115//115 114//114 116//116
f 114//114 193//193 116//116
f 15//15 117//117 192//192
f 192//192 117//117 191//191
f 191//191 117//117 118//118
f 106//106 116//116 196//196
f 116//116 191//191 196//196
f 191//191 118//118 196//196
f 119//119 120//120 195//195
f 195//195 120//120 194//194
f 194//194 120//120 198//198
f 106//106 196//196 121//121
f 196//196 194//194 121//121
f 194//194 198//198 121//121
f 100//100 202//202 199//199
f 199//199 202//202 197//197
f 197//197 202//202 122//122
f 106//106 121//121 201//201
f 121//121 197//197 201//201
f 197//197 122//122 201//201
f 17//17 124//124 123//123
f 123//123 124//124 200//200
f 200//200 124//124 126//126
f 106//106 201//201 125//125
f 201//201 200//200 125//125
f 200//200 126//126 125//125
f 148//148 127//127 149//149
f 149//149 127//127 152//152
f 151//151 128//128 172//172
f 172//172 128//128 82//82
f 129//129 154//154 130//130
f 130//130 154//154 39//39
f 33//33 2//2 1//1
f 1//1 2//2 131//131
f 20//20 43//43 40//40
f 40//40 43//43 21//21
f 132//132 133//133 174//174
f 174//174 133//133 4//4
f 44//44 156//156 159//159
f 159//159 156//156 158//158
f 49//49 5//5 88//88
f 88//88 5//5 92//92
f 134//134 135//135 165//165
f 165//165 135//135 58//58
f 55//55 60//60 91//91
f 91//91 60//60 177//177
f 167//167 136//136 169//169
f 169//169 136//136 23//23
f 6//6 65//65 179//179
f 179//179 65//65 180//180
f 61//61 27//27 63//63
f 63//63 27//27 26//26
f 66//66 170//170 98//98
f 98//98 170//170 183//183
f 24//24 137//137 25//25
f 25//25 137//137 138//138
f 7//7 81//81 184//184
f 184//184 81//81 103//103
f 18//18 9//9 124//124
f 124//124 9//9 186//186
f 139//139 140//140 187//187
f 187//187 140//140 109//109
f 141//141 143//143 142//142
f 142//142 143//143 144//144
f 87//87 175//175 12//12
f 12//12 175//175 189//189
f 13//13 178//178 145//145
f 145//145 178//178 192//192
f 95//95 146//146 117//117
f 117//117 146//146 195//195
f 16//16 182//182 120//120
f 120//120 182//182 199//199
f 185//185 147//147 202//202
f 202//202 147//147 123//123
f 77//77 38//38 148//148
f 148//148 38//38 127//127
f 38//38 30//30 127//127
f 149//149 152//152 150//150
f 150//150 152//152 151//151
f 151//151 152//152 128//128
f 152//152 153//153 128//128
f 31//31 37//37 129//129
f 129//129 37//37 154//154
f 154//154 37//37 35//35
f 39//39 155//155 130//130
f 155//155 2//2 130//130
f 2//2 33//33 130//130
f 33//33 34//34 130//130
f 46//46 52//52 20//20
f 20//20 52//52 43//43
f 43//43 52//52 45//45
f 21//21 50//50 40//40
f 50//50 133//133 40//40
f 133//133 132//132 40//40
f 132//132 42//42 40//40
f 53//53 157//157 44//44
f 44//44 157//157 156//156
f 156//156 157//157 51//51
f 158//158 54//54 159//159
f 54//54 5//5 159//159
f 5//5 49//49 159//159
f 49//49 160//160 159//159
f 161//161 162//162 134//134
f 134//134 162//162 135//135
f 135//135 162//162 57//57
f 58//58 163//163 165//165
f 163//163 60//60 165//165
f 60//60 55//55 165//165
f 55//55 164//164 165//165
f 166//166 168//168 167//167
f 167//167 168//168 136//136
f 136//136 168//168 62//62
f 23//23 68//68 169//169
f 68//68 65//65 169//169
f 65//65 6//6 169//169
f 6//6 59//59 169//169
f 72//72 79//79 61//61
f 61//61 79//79 27//27
f 27//27 79//79 70//70
f 26//26 75//75 63//63
f 75//75 170//170 63//63
f 170//170 66//66 63//63
f 66//66 69//69 63//63
f 71//71 78//78 24//24
f 24//24 78//78 137//137
f 137//137 78//78 29//29
f 138//138 80//80 25//25
f 80//80 81//81 25//25
f 81//81 7//7 25//25
f 7//7 74//74 25//25
f 105//105 172//172 18//18
f 171//171 9//9 82//82
f 172//172 82//82 18//18
f 18//18 82//82 9//9
f 83//83 1//1 139//139
f 84//84 140//140 131//131
f 1//1 131//131 139//139
f 140//140 139//139 131//131
f 85//85 174//174 141//141
f 173//173 143//143 4//4
f 174//174 4//4 141//141
f 143//143 141//141 4//4
f 89//89 88//88 87//87
f 93//93 175//175 92//92
f 88//88 92//92 87//87
f 175//175 87//87 92//92
f 94//94 91//91 13//13
f 176//176 178//178 177//177
f 91//91 177//177 13//13
f 178//178 13//13 177//177
f 97//97 179//179 95//95
f 99//99 146//146 180//180
f 179//179 180//180 95//95
f 146//146 95//95 180//180
f 181//181 98//98 16//16
f 101//101 182//182 183//183
f 98//98 183//183 16//16
f 182//182 16//16 183//183
f 102//102 184//184 185//185
f 104//104 147//147 103//103
f 184//184 103//103 185//185
f 147//147 185//185 103//103
f 107//107 125//125 186//186
f 126//126 124//124 125//125
f 124//124 186//186 125//125
f 111//111 110//110 109//109
f 108//108 187//187 110//110
f 109//109 110//110 187//187
f 188//188 113//113 144//144
f 112//112 142//142 113//113
f 144//144 113//113 142//142
f 114//114 115//115 189//189
f 190//190 12//12 115//115
f 189//189 115//115 12//12
f 191//191 116//116 192//192
f 193//193 145//145 116//116
f 192//192 116//116 145//145
f 194//194 196//196 195//195
f 118//118 117//117 196//196
f 195//195 196//196 117//117
f 197//197 121//121 199//199
f 198//198 120//120 121//121
f 199//199 121//121 120//120
f 200//200 201//201 123//123
f 122//122 202//202 201//201
f 123//123 201//201 202//202
# 400 faces, 0 coords texture

# End of File
